<?xml version="1.0" encoding="UTF-8"?>
<svg id="_x32_" xmlns="http://www.w3.org/2000/svg" version="1.1" viewBox="0 0 512 512">
  <!-- Generator: Adobe Illustrator 30.1.0, SVG Export Plug-In . SVG Version: 2.1.1 Build 136)  -->
  <path d="M433.65,456.45c-9-3.8-17.4-9-25.2-15.6-7.8-6.6-15.7-14.7-23.7-24.3-6-6.8-12.9-15.39-20.7-25.8-7.8-10.4-15.51-20.9-23.1-31.5-7.6-10.59-13.9-19.5-18.9-26.7-5.01-7.2-7.5-11-7.5-11.4-.58-.79-1.17-1.59-1.77-2.38,16.45-1.07,31.66-5.16,45.62-12.32,16.8-8.6,30.3-21,40.5-37.2,10.2-16.2,15.3-35.7,15.3-58.5,0-21.2-5.61-39.5-16.8-54.9-8.96-12.32-20.88-22.33-35.73-30.04-1.39-4.93-3.09-9.61-5.12-14.06-6.4-14-15.1-25.7-26.1-35.1-11.01-9.39-24.3-16.5-39.9-21.3-15.6-4.8-32.4-7.2-50.4-7.2H63.75v6h7.8c10.4,0,19.29,3.7,26.7,11.1,7.4,7.41,11.3,16.3,11.7,26.7v332.4c-.4,10.41-4.3,19.3-11.7,26.7-7.41,7.41-16.3,11.1-26.7,11.1h-7.8v6h197.45v-6h-8.4c-9.6,0-17.7-3.2-24.3-9.6-5.3-5.13-8.6-11.05-9.9-17.74v-154.15c6.27,6.59,12.05,14.08,17.35,22.49,1.2,2.01,3.99,6.51,8.4,13.5,4.4,7,9.6,15.3,15.6,24.9,6,9.6,12.09,19.3,18.3,29.1,6.2,9.81,11.79,18.51,16.8,26.1,5,7.6,8.3,12.81,9.9,15.6,7.59,10,16.8,19.3,27.6,27.9,10.8,8.61,23.6,15.4,38.4,20.4,14.79,5.01,31.8,7.5,51,7.5h42v-6c-11.2,0-21.3-1.89-30.3-5.7ZM370.1,221.55c-.6,6-1.71,11.2-3.3,15.6-6,17.2-14.1,30.4-24.3,39.6-10.2,9.21-21.1,15.51-32.7,18.9-4.62,1.36-9.14,2.44-13.57,3.29-1.46-1.59-2.94-3.19-4.48-4.79-8.8-9.2-17.61-15.39-26.4-18.6,20.4-.8,38.1-6.8,53.1-18,15-11.19,26.7-25.5,35.1-42.9,6.42-13.29,10.38-26.88,11.89-40.76,3.69,9.15,5.56,19.42,5.56,30.86,0,5.2-.3,10.8-.9,16.8ZM175.95,69.15c7.2,0,15.8-.09,25.8-.3,9.99-.2,19.59.1,28.8.9,21.6.81,39.09,8.91,52.5,24.3,3.79,4.35,7.04,9.21,9.78,14.54-5.01-.29-10.15-.44-15.44-.44h-111.65v-39h10.2ZM165.75,120.05c1.37.93,2.69,1.96,3.95,3.11,6.6,6,10.1,13.6,10.5,22.8v283.8c-.3,6.64-2.37,12.6-6.2,17.87-5.49-6.67-8.25-14.42-8.25-23.27V120.05ZM218.6,256.61V126.15h57.6c8.47,0,16.39.59,23.81,1.74,2.32,9.21,3.58,19.42,3.74,30.66.39,6.4.3,12.6-.3,18.6-.6,6-1.5,11.01-2.7,15-4.8,18-12.1,31.6-21.9,40.8-9.81,9.21-20.61,15.4-32.4,18.6-9.77,2.65-19.05,4.33-27.85,5.06Z"/>
</svg>