<?xml version="1.0" encoding="UTF-8"?>
<svg xmlns="http://www.w3.org/2000/svg" version="1.1" viewBox="0 0 590.22 90.96">
  <!-- Generator: Adobe Illustrator 30.2.1, SVG Export Plug-In . SVG Version: 2.1.1 Build 1)  -->
  <defs>
    <style>
      .st0 {
        fill: none;
      }

      .st1 {
        fill: #322e2e;
      }

      .st2 {
        stroke-width: .75px;
      }

      .st2, .st3 {
        stroke: #1a1515;
        stroke-linejoin: round;
      }

      .st2, .st3, .st4 {
        fill: #1a1515;
      }

      .st3 {
        stroke-width: .5px;
      }

      .st5, .st6 {
        fill: #fff;
      }

      .st5, .st7 {
        display: none;
      }
    </style>
  </defs>
  <g id="_レイヤー_1" data-name="レイヤー_1" class="st7">
    <g class="st7">
      <rect class="st0" x="135.34" y="-53.57" width="679.2" height="171.36"/>
      <path d="M149.34,4.41h-.3c-.07-1.73-.72-3.22-1.95-4.45-1.23-1.23-2.72-1.85-4.45-1.85h-1.3v-1h8v7.3ZM149.34,59.81v7.3h-8v-1h1.3c1.73,0,3.22-.62,4.45-1.85,1.23-1.23,1.88-2.72,1.95-4.45h.3ZM155.54-2.89v70h-6.5V-2.89h6.5ZM168.34-2.89c3,0,5.72.43,8.15,1.3,2.43.87,4.48,2.12,6.15,3.75,1.67,1.63,2.95,3.6,3.85,5.9.9,2.3,1.35,4.92,1.35,7.85,0,3.2-.75,6.27-2.25,9.2-1.5,2.93-3.53,5.32-6.1,7.15-2.57,1.83-5.45,2.75-8.65,2.75,1.13.47,2.37,1.42,3.7,2.85,1.33,1.43,2.5,2.82,3.5,4.15,1.8,2.6,3.38,4.83,4.75,6.7,1.37,1.87,2.75,3.7,4.15,5.5,1.4,1.8,2.6,3.23,3.6,4.3,1.33,1.47,2.67,2.77,4,3.9,1.33,1.13,2.78,2.03,4.35,2.7,1.57.67,3.32,1,5.25,1v1h-5.5c-3.07,0-5.72-.47-7.95-1.4-2.23-.93-4.12-2.08-5.65-3.45-1.53-1.37-2.83-2.68-3.9-3.95-.2-.27-.75-1.03-1.65-2.3-.9-1.27-1.97-2.78-3.2-4.55-1.23-1.77-2.45-3.52-3.65-5.25-1.2-1.73-2.23-3.22-3.1-4.45-.87-1.23-1.37-1.95-1.5-2.15-1.27-1.67-2.67-3.2-4.2-4.6-1.53-1.4-3.2-2.1-5-2.1v-1c2.07.07,3.83.07,5.3,0,1.73-.07,3.63-.33,5.7-.8,2.07-.47,4-1.43,5.8-2.9,1.8-1.47,3.17-3.7,4.1-6.7.2-.73.37-1.65.5-2.75.13-1.1.17-2.18.1-3.25-.07-4.53-1.22-8.15-3.45-10.85-2.23-2.7-5.22-4.15-8.95-4.35-1.87-.13-3.78-.18-5.75-.15-1.97.03-4.28.05-6.95.05,0-.07-.08-.35-.25-.85-.17-.5-.42-1.25-.75-2.25h14.1ZM155.24,59.81h.3c0,1.73.63,3.22,1.9,4.45,1.27,1.23,2.77,1.85,4.5,1.85h1.2v1h-7.9v-7.3Z"/>
      <path d="M233.43,8.78c4.19,0,8.06.71,11.6,2.14,3.54,1.42,6.63,3.45,9.27,6.08,2.63,2.63,4.69,5.76,6.16,9.4,1.47,3.64,2.21,7.71,2.21,12.21s-.74,8.57-2.21,12.21c-1.47,3.64-3.53,6.78-6.16,9.4-2.64,2.63-5.72,4.66-9.27,6.08-3.54,1.42-7.41,2.14-11.6,2.14s-7.96-.71-11.48-2.14c-3.51-1.42-6.6-3.45-9.27-6.08-2.66-2.63-4.72-5.76-6.16-9.4-1.45-3.64-2.17-7.71-2.17-12.21s.72-8.56,2.17-12.21c1.44-3.64,3.5-6.78,6.16-9.4,2.66-2.63,5.75-4.66,9.27-6.08,3.51-1.43,7.34-2.14,11.48-2.14ZM233.43,65.31c3.97,0,7.51-1.12,10.62-3.37,3.12-2.25,5.57-5.37,7.35-9.36,1.79-3.99,2.68-8.64,2.68-13.96s-.89-10.05-2.68-14.01c-1.79-3.96-4.24-7.06-7.35-9.31-3.12-2.25-6.66-3.37-10.62-3.37s-7.34,1.12-10.46,3.37c-3.12,2.25-5.58,5.35-7.4,9.31-1.81,3.96-2.72,8.63-2.72,14.01s.91,9.98,2.72,13.96c1.81,3.99,4.28,7.11,7.4,9.36,3.12,2.25,6.6,3.37,10.46,3.37Z"/>
      <path d="M274.01,24.23h-.16c-.05-1.23-.53-2.25-1.42-3.08-.89-.83-1.98-1.24-3.28-1.24h-.97v-.8h5.83v5.12ZM274.01,61.99l.89,5.12h-6.72v-.8h1.13c1.3,0,2.36-.43,3.2-1.28.84-.85,1.28-1.87,1.34-3.04h.16ZM281.22,19.11v48h-7.37V19.11h7.37ZM280.97,24.23v-5.12h5.91v.8h-.97c-1.3,0-2.4.41-3.32,1.24-.92.83-1.38,1.85-1.38,3.08h-.24ZM302.03,64.39l.57,2.72h-21.55v-2.72h20.98ZM306.81,54.55l-3.97,12.56h-12.88l2.67-2.72c2.54,0,4.66-.41,6.36-1.24,1.7-.83,3.12-1.99,4.25-3.48,1.13-1.49,2.05-3.2,2.75-5.12h.81Z"/>
      <path d="M317.63,24.15h-.16c-.05-1.23-.49-2.24-1.32-3.04-.83-.8-1.88-1.2-3.16-1.2h-1.12v-.8h6.64l-.88,5.04ZM317.63,61.99l.88,5.12h-6.64v-.8h1.12c1.28,0,2.33-.43,3.16-1.28.83-.85,1.27-1.87,1.32-3.04h.16ZM324.75,19.11v48h-7.28V19.11h7.28ZM345.55,19.11v2.72h-20.96v-2.72h20.96ZM341.95,41.83v2.72h-17.36v-2.72h17.36ZM345.31,64.39l.56,2.72h-21.28v-2.72h20.72ZM350.03,54.55l-3.92,12.56h-12.72l2.64-2.72c2.51,0,4.6-.41,6.28-1.24,1.68-.83,3.08-1.99,4.2-3.48s2.03-3.2,2.72-5.12h.8ZM345.55,17.83v2.08l-8.88-.8c1.65,0,3.39-.15,5.2-.44,1.81-.29,3.04-.57,3.68-.84ZM341.95,36.63v5.36h-5.12v-.16c1.39,0,2.44-.43,3.16-1.28.72-.85,1.08-1.87,1.08-3.04v-.88h.88ZM341.95,44.39v5.36h-.88v-.88c0-1.23-.36-2.25-1.08-3.08-.72-.83-1.77-1.24-3.16-1.24v-.16h5.12ZM345.55,21.59v6.56h-.8v-1.04c0-1.55-.45-2.81-1.36-3.8-.91-.99-2.16-1.48-3.76-1.48v-.24h5.92Z"/>
      <path d="M366.19,4.41h-.3c0-1.73-.63-3.22-1.9-4.45-1.27-1.23-2.77-1.85-4.5-1.85h-1.2l-.1-1h8v7.3ZM366.19,59.81v7.3h-8v-1h1.3c1.73,0,3.22-.62,4.45-1.85,1.23-1.23,1.88-2.72,1.95-4.45h.3ZM372.39-2.89v70h-6.5V-2.89h6.5ZM384.29-2.89c4.27,0,7.93.77,11,2.3,3.07,1.53,5.43,3.75,7.1,6.65,1.67,2.9,2.5,6.35,2.5,10.35,0,3.07-.6,5.82-1.8,8.25-1.2,2.43-2.8,4.48-4.8,6.15-2,1.67-4.27,2.92-6.8,3.75-2.53.83-5.15,1.15-7.85.95-2.7-.2-5.32-.97-7.85-2.3v-1c2.27.33,4.28.45,6.05.35,1.77-.1,3.63-.47,5.6-1.1,1.97-.63,3.8-1.75,5.5-3.35s2.98-3.83,3.85-6.7c.2-.73.37-1.65.5-2.75.13-1.1.17-2.18.1-3.25-.07-4.6-1.27-8.3-3.6-11.1-2.33-2.8-5.63-4.2-9.9-4.2h-11.8c-.33-1-.67-2-1-3h13.2ZM372.09,59.81h.3c.07,1.73.71,3.22,1.95,4.45,1.23,1.23,2.72,1.85,4.45,1.85h1.3v1h-8v-7.3Z"/>
      <path d="M417.59,24.23h-.17c-.06-1.23-.55-2.25-1.49-3.08-.94-.83-2.08-1.24-3.44-1.24h-1.02v-.8h6.12v5.12ZM417.59,61.99l.93,5.12h-7.05v-.8h1.19c1.36,0,2.48-.43,3.36-1.28.88-.85,1.34-1.87,1.4-3.04h.17ZM425.15,19.11v48h-7.74V19.11h7.74ZM424.89,24.23v-5.12h6.21v.8h-1.02c-1.36,0-2.52.41-3.49,1.24-.96.83-1.44,1.85-1.44,3.08h-.26ZM447,64.39l.59,2.72h-22.61v-2.72h22.01ZM452.01,54.55l-4.17,12.56h-13.51l2.8-2.72c2.66,0,4.89-.41,6.67-1.24,1.79-.83,3.27-1.99,4.46-3.48,1.19-1.49,2.15-3.2,2.89-5.12h.85Z"/>
      <path d="M464.4,61.43c-.59,1.55-.51,2.75.24,3.6.75.85,1.6,1.28,2.56,1.28h.64v.8h-15.52v-.8h.64c1.07,0,2.19-.37,3.36-1.12,1.17-.75,2.19-2,3.04-3.76h5.04ZM479.69,17.67l.48,6.88-18,42.32h-5.36l18.88-40.48c.05-.11.24-.52.56-1.24.32-.72.68-1.56,1.08-2.52.4-.96.77-1.89,1.12-2.8.35-.91.55-1.63.6-2.16h.64ZM488.32,49.43v2.64h-20.96v-2.64h20.96ZM479.69,17.67l22.56,48.96h-8.72l-16.32-39.36,2.48-9.6ZM491.44,61.43h8.48c.8,1.76,1.79,3.01,2.96,3.76,1.17.75,2.29,1.12,3.36,1.12h.64v.8h-18.8v-.8h.64c.91,0,1.73-.43,2.48-1.28.75-.85.83-2.05.24-3.6Z"/>
      <path d="M516.85,18.78l-9.44-.27c-.85-1.38-1.94-2.48-3.27-3.28-1.33-.81-2.82-1.22-4.46-1.22h-1.02v-.9h21.76v.9h-.94c-1.25,0-2.14.53-2.68,1.58-.54,1.05-.52,2.11.04,3.19ZM513.87,13.2l15.81,29.52-6.12,2.52-19.29-32.04h9.61ZM523.14,61.35v5.76h-6.12v-.9h1.02c1.36,0,2.49-.48,3.4-1.44.91-.96,1.39-2.1,1.45-3.42h.25ZM530.7,43.44v23.67h-7.82v-23.58l7.82-.09ZM544.22,13.2h5.7l-19.89,32.13-3.48-.9,17.68-31.23ZM530.44,61.35h.26c.06,1.32.55,2.46,1.49,3.42.93.96,2.05,1.44,3.36,1.44h1.02v.9h-6.12v-5.76ZM541.07,18.78c.62-1.14.64-2.22.04-3.24-.59-1.02-1.49-1.53-2.68-1.53h-1.02v-.9h17.93v.9h-1.02c-1.59,0-3.06.45-4.42,1.35-1.36.9-2.44,1.95-3.23,3.15l-5.61.27Z"/>
      <path d="M561.27,59.86v7.25h-6.3v-1.17h1.43c1.29,0,2.38-.58,3.28-1.75s1.34-2.61,1.34-4.33h.25ZM561.11-4.84l3.61,6.55.08,65.4h-3.78V9.78c0-3.98-.25-8.85-.76-14.62h.84ZM561.11-4.84l46.54,61.07.84,12.52-46.54-61.42-.84-12.17ZM564.8,59.86c0,1.72.46,3.16,1.39,4.33s2,1.75,3.23,1.75h1.43v1.17h-6.3v-7.25h.25ZM604.79,4.17c-.06-1.71-.53-3.16-1.43-4.33-.9-1.17-1.99-1.75-3.28-1.75h-1.43v-1.17h6.3v7.25h-.17ZM608.48-3.09v56.86c0,2.5.05,4.9.17,7.2.11,2.3.31,4.9.59,7.78h-.76l-3.7-6.2V-3.09h3.7ZM608.23,4.17V-3.09h6.3v1.17h-1.43c-1.23,0-2.31.58-3.23,1.75s-1.39,2.61-1.39,4.33h-.25Z"/>
    </g>
    <path class="st5" d="M20.51-86.64"/>
    <g class="st7">
      <path d="M337.71,4.41h-.3c-.07-1.73-.72-3.22-1.95-4.45-1.23-1.23-2.72-1.85-4.45-1.85h-1.3v-1h8v7.3ZM337.71,59.81v7.3h-8v-1h1.3c1.73,0,3.21-.62,4.45-1.85,1.23-1.23,1.88-2.71,1.95-4.45h.3ZM343.91-2.89v70h-6.5V-2.89h6.5ZM356.71-2.89c3,0,5.72.43,8.15,1.3,2.43.87,4.48,2.12,6.15,3.75,1.67,1.63,2.95,3.6,3.85,5.9.9,2.3,1.35,4.92,1.35,7.85,0,3.2-.75,6.27-2.25,9.2-1.5,2.93-3.53,5.32-6.1,7.15-2.57,1.83-5.45,2.75-8.65,2.75,1.13.47,2.37,1.42,3.7,2.85,1.33,1.43,2.5,2.82,3.5,4.15,1.8,2.6,3.38,4.83,4.75,6.7,1.37,1.87,2.75,3.7,4.15,5.5s2.6,3.23,3.6,4.3c1.33,1.47,2.67,2.77,4,3.9,1.33,1.13,2.78,2.03,4.35,2.7,1.57.67,3.32,1,5.25,1v1h-5.5c-3.07,0-5.72-.47-7.95-1.4-2.23-.93-4.12-2.08-5.65-3.45-1.54-1.37-2.83-2.68-3.9-3.95-.2-.27-.75-1.03-1.65-2.3-.9-1.27-1.97-2.78-3.2-4.55-1.23-1.77-2.45-3.52-3.65-5.25-1.2-1.73-2.23-3.22-3.1-4.45-.87-1.23-1.37-1.95-1.5-2.15-1.27-1.67-2.67-3.2-4.2-4.6-1.53-1.4-3.2-2.1-5-2.1v-1c2.07.07,3.83.07,5.3,0,1.73-.07,3.63-.33,5.7-.8,2.07-.47,4-1.43,5.8-2.9,1.8-1.47,3.17-3.7,4.1-6.7.2-.73.37-1.65.5-2.75.13-1.1.17-2.18.1-3.25-.07-4.53-1.22-8.15-3.45-10.85-2.23-2.7-5.22-4.15-8.95-4.35-1.87-.13-3.78-.18-5.75-.15-1.97.03-4.28.05-6.95.05,0-.07-.08-.35-.25-.85-.17-.5-.42-1.25-.75-2.25h14.1ZM343.61,59.81h.3c0,1.73.63,3.22,1.9,4.45,1.27,1.23,2.77,1.85,4.5,1.85h1.2v1h-7.9v-7.3Z"/>
    </g>
    <g class="st7">
      <rect class="st0" x="80.62" y="-18.12" width="563.69" height="120.45"/>
      <path d="M94.62,4.17h-.3c-.07-1.73-.72-3.22-1.95-4.45-1.23-1.23-2.72-1.85-4.45-1.85h-1.3v-1h8v7.3ZM94.62,59.57v7.3h-8v-1h1.3c1.73,0,3.22-.62,4.45-1.85,1.23-1.23,1.88-2.72,1.95-4.45h.3ZM100.82-3.13v70h-6.5V-3.13h6.5ZM113.62-3.13c3,0,5.72.43,8.15,1.3,2.43.87,4.48,2.12,6.15,3.75,1.67,1.63,2.95,3.6,3.85,5.9.9,2.3,1.35,4.92,1.35,7.85,0,3.2-.75,6.27-2.25,9.2-1.5,2.93-3.53,5.32-6.1,7.15-2.57,1.83-5.45,2.75-8.65,2.75,1.13.47,2.37,1.42,3.7,2.85,1.33,1.43,2.5,2.82,3.5,4.15,1.8,2.6,3.38,4.83,4.75,6.7,1.37,1.87,2.75,3.7,4.15,5.5,1.4,1.8,2.6,3.23,3.6,4.3,1.33,1.47,2.67,2.77,4,3.9,1.33,1.13,2.78,2.03,4.35,2.7,1.57.67,3.32,1,5.25,1v1h-5.5c-3.07,0-5.72-.47-7.95-1.4-2.23-.93-4.12-2.08-5.65-3.45-1.53-1.37-2.83-2.68-3.9-3.95-.2-.27-.75-1.03-1.65-2.3-.9-1.27-1.97-2.78-3.2-4.55-1.23-1.77-2.45-3.52-3.65-5.25-1.2-1.73-2.23-3.22-3.1-4.45-.87-1.23-1.37-1.95-1.5-2.15-1.27-1.67-2.67-3.2-4.2-4.6-1.53-1.4-3.2-2.1-5-2.1v-1c2.07.07,3.83.07,5.3,0,1.73-.07,3.63-.33,5.7-.8,2.07-.47,4-1.43,5.8-2.9,1.8-1.47,3.17-3.7,4.1-6.7.2-.73.37-1.65.5-2.75.13-1.1.17-2.18.1-3.25-.07-4.53-1.22-8.15-3.45-10.85-2.23-2.7-5.22-4.15-8.95-4.35-1.87-.13-3.78-.18-5.75-.15-1.97.03-4.28.05-6.95.05,0-.07-.08-.35-.25-.85-.17-.5-.42-1.25-.75-2.25h14.1ZM100.52,59.57h.3c0,1.73.63,3.22,1.9,4.45,1.27,1.23,2.77,1.85,4.5,1.85h1.2v1h-7.9v-7.3Z"/>
      <path d="M183.15,5.47c4.2,0,8.15.75,11.83,2.25s6.93,3.65,9.72,6.45c2.79,2.8,4.96,6.12,6.53,9.95,1.56,3.83,2.34,8.08,2.34,12.75s-.78,8.92-2.34,12.75c-1.56,3.83-3.74,7.15-6.53,9.95-2.79,2.8-6.03,4.95-9.72,6.45s-7.64,2.25-11.83,2.25-8.13-.75-11.79-2.25c-3.66-1.5-6.89-3.65-9.67-6.45-2.79-2.8-4.97-6.12-6.53-9.95-1.56-3.83-2.34-8.08-2.34-12.75s.78-8.92,2.34-12.75c1.56-3.83,3.74-7.15,6.53-9.95,2.79-2.8,6.01-4.95,9.67-6.45,3.66-1.5,7.59-2.25,11.79-2.25ZM183.15,65.27c4.44,0,8.46-1.2,12.06-3.6,3.6-2.4,6.45-5.73,8.55-10,2.1-4.27,3.15-9.2,3.15-14.8s-1.05-10.62-3.15-14.85c-2.1-4.23-4.95-7.55-8.55-9.95-3.6-2.4-7.62-3.6-12.06-3.6s-8.37,1.2-11.97,3.6c-3.6,2.4-6.45,5.72-8.55,9.95-2.1,4.23-3.15,9.18-3.15,14.85s1.05,10.53,3.15,14.8c2.1,4.27,4.95,7.6,8.55,10,3.6,2.4,7.59,3.6,11.97,3.6Z"/>
      <path d="M230.88,13.27h-.2c-.07-1.53-.67-2.82-1.8-3.85-1.13-1.03-2.53-1.55-4.2-1.55h-1.2v-1h7.4v6.4ZM230.88,60.47l1.3,6.4h-8.7v-1h1.4c1.67,0,3.03-.53,4.1-1.6,1.07-1.07,1.63-2.33,1.7-3.8h.2ZM237.08,6.87v60h-6.4V6.87h6.4ZM236.78,13.27v-6.4h7.4v1h-1.2c-1.6,0-2.98.52-4.15,1.55-1.17,1.03-1.75,2.32-1.75,3.85h-.3ZM263.98,63.77l-.2,3.1h-26.9v-3.1h27.1ZM269.58,52.57l-5.5,14.3h-15.2l3.4-3.1c3.33,0,6.02-.48,8.05-1.45,2.03-.97,3.68-2.3,4.95-4,1.27-1.7,2.37-3.62,3.3-5.75h1Z"/>
      <path d="M282.08,13.17h-.2c-.07-1.53-.63-2.8-1.7-3.8-1.07-1-2.43-1.5-4.1-1.5h-1.4v-1h8.7l-1.3,6.3ZM282.08,60.47l1.3,6.4h-8.7v-1h1.4c1.67,0,3.03-.53,4.1-1.6,1.07-1.07,1.63-2.33,1.7-3.8h.2ZM288.28,6.87v60h-6.4V6.87h6.4ZM315.08,6.87v3.1h-27v-3.1h27ZM310.48,35.37v3h-22.4v-3h22.4ZM315.18,63.77l-.2,3.1h-26.9v-3.1h27.1ZM320.78,52.57l-5.5,14.3h-15.2l3.4-3.1c3.33,0,6.02-.48,8.05-1.45,2.03-.97,3.68-2.3,4.95-4,1.27-1.7,2.37-3.62,3.3-5.75h1ZM315.08,5.27v2.6l-11.4-1c2.07,0,4.27-.18,6.6-.55,2.33-.37,3.93-.72,4.8-1.05ZM310.48,29.87v5.7h-5.2v-.2c1.4,0,2.43-.42,3.1-1.25.67-.83,1-1.82,1-2.95v-1.3h1.1ZM310.48,38.17v5.7h-1.1v-1.3c0-1.13-.33-2.12-1-2.95-.67-.83-1.7-1.25-3.1-1.25v-.2h5.2ZM315.08,9.67v6.9h-1.1v-1.5c0-1.4-.45-2.6-1.35-3.6-.9-1-2.12-1.5-3.65-1.5v-.3h6.1Z"/>
      <path d="M336.81,4.58h-.2c-.07-1.78-.66-3.25-1.77-4.41-1.11-1.16-2.47-1.74-4.09-1.74h-1.41v-1.16h8.79l-1.31,7.31ZM336.81,59.45l1.31,7.42h-8.79v-1.16h1.41c1.62,0,2.98-.62,4.09-1.86,1.11-1.24,1.7-2.71,1.77-4.41h.2ZM343.07-2.73v69.6h-6.46V-2.73h6.46ZM342.77,59.45h.2c.07,1.7.66,3.17,1.77,4.41,1.11,1.24,2.47,1.86,4.09,1.86h1.41v1.16h-8.79l1.31-7.42ZM352.97-2.73c4.71,0,8.79.79,12.22,2.38,3.43,1.59,6.09,3.87,7.98,6.84,1.88,2.98,2.83,6.52,2.83,10.61,0,4.41-.86,8.18-2.58,11.31-1.72,3.13-3.99,5.53-6.82,7.19-2.83,1.66-5.96,2.48-9.39,2.44-3.43-.04-6.87-1.02-10.3-2.96v-1.16c2.22.46,4.21.68,5.96.64,1.75-.04,3.6-.39,5.55-1.04,1.95-.66,3.79-1.87,5.5-3.65,1.72-1.78,3.08-4.33,4.09-7.66.27-.85.45-1.86.56-3.02.1-1.16.15-2.24.15-3.25,0-4.72-1.41-8.43-4.24-11.14-2.83-2.71-6.73-4.06-11.72-4.06h-9.9c-.34-1.16-.71-2.32-1.11-3.48h11.21Z"/>
      <path d="M392.53,13.27h-.2c-.07-1.53-.67-2.82-1.8-3.85-1.13-1.03-2.54-1.55-4.2-1.55h-1.2v-1h7.4v6.4ZM392.53,60.47l1.3,6.4h-8.7v-1h1.4c1.67,0,3.03-.53,4.1-1.6,1.07-1.07,1.63-2.33,1.7-3.8h.2ZM398.73,6.87v60h-6.4V6.87h6.4ZM398.43,13.27v-6.4h7.4v1h-1.2c-1.6,0-2.98.52-4.15,1.55-1.17,1.03-1.75,2.32-1.75,3.85h-.3ZM425.63,63.77l-.2,3.1h-26.9v-3.1h27.1ZM431.23,52.57l-5.5,14.3h-15.2l3.4-3.1c3.33,0,6.02-.48,8.05-1.45,2.03-.97,3.68-2.3,4.95-4,1.27-1.7,2.37-3.62,3.3-5.75h1Z"/>
      <path d="M447.53,59.57c-.73,2-.63,3.55.3,4.65.93,1.1,2,1.65,3.2,1.65h.8v1h-19.1v-1h.8c1.4,0,2.83-.48,4.3-1.45,1.47-.97,2.73-2.58,3.8-4.85h5.9ZM466.83,5.47l.7,6.9-22.9,54.2h-6.3l23.7-50.8c.73-1.6,1.35-2.98,1.85-4.15.5-1.17.95-2.32,1.35-3.45.4-1.13.63-2.03.7-2.7h.9ZM478.63,43.57v3h-26.5v-3h26.5ZM466.83,5.47l27.5,60.8h-7.9l-21.3-51.9,1.7-8.9ZM483.73,59.57h7.6c1,2.27,2.23,3.88,3.7,4.85,1.47.97,2.87,1.45,4.2,1.45h.8v1h-20.5v-1h.8c1.13,0,2.17-.55,3.1-1.65.93-1.1,1.03-2.65.3-4.65Z"/>
      <path d="M508.93,13.17l-8.5-.3c-1.07-1.53-2.38-2.75-3.95-3.65-1.57-.9-3.32-1.35-5.25-1.35h-1.2v-1h23.2v1h-1.2c-1.47,0-2.52.58-3.15,1.75-.63,1.17-.62,2.35.05,3.55ZM505.43,6.97l18.5,32.9-4.1,3.5-23.1-36.4h8.7ZM519.23,60.47v6.4h-7.3v-1h1.2c1.6,0,2.95-.53,4.05-1.6,1.1-1.07,1.68-2.33,1.75-3.8h.3ZM525.43,41.07v25.8h-6.5v-25.8h6.5ZM542.23,6.97h6.3l-23.8,36.2-3.7-1.1,21.2-35.1ZM525.13,60.47h.3c.07,1.47.65,2.73,1.75,3.8,1.1,1.07,2.45,1.6,4.05,1.6h1.2v1h-7.3v-6.4ZM538.43,13.27c.73-1.33.77-2.57.1-3.7-.67-1.13-1.73-1.7-3.2-1.7h-1.2v-1h20.9v1h-1.2c-1.87,0-3.62.52-5.25,1.55-1.63,1.03-2.92,2.22-3.85,3.55l-6.3.3Z"/>
      <path d="M565.09,60.67v6.2h-7.2v-1h1.63c1.47,0,2.72-.5,3.74-1.5,1.02-1,1.54-2.23,1.54-3.7h.29ZM564.9,5.37l4.13,5.6.1,55.9h-4.32V17.87c0-3.4-.29-7.57-.86-12.5h.96ZM564.9,5.37l53.18,52.2.96,10.7-53.18-52.5-.96-10.4ZM569.12,60.67c0,1.47.53,2.7,1.58,3.7,1.06,1,2.29,1.5,3.7,1.5h1.63v1h-7.2v-6.2h.29ZM614.82,13.07c-.06-1.47-.61-2.7-1.63-3.7-1.02-1-2.27-1.5-3.74-1.5h-1.63v-1h7.2v6.2h-.19ZM619.04,6.87v48.6c0,2.13.06,4.18.19,6.15.13,1.97.35,4.18.67,6.65h-.86l-4.22-5.3V6.87h4.22ZM618.76,13.07v-6.2h7.2v1h-1.63c-1.41,0-2.64.5-3.7,1.5-1.06,1-1.58,2.23-1.58,3.7h-.29Z"/>
    </g>
    <g class="st7">
      <rect class="st0" x="62.27" y="-18.12" width="591.53" height="120.45"/>
      <path d="M75.77,4.17h-.3c-.07-1.73-.72-3.22-1.95-4.45-1.23-1.23-2.72-1.85-4.45-1.85h-1.3v-1h8v7.3ZM75.77,59.58v7.3h-8v-1h1.3c1.73,0,3.22-.62,4.45-1.85,1.23-1.23,1.88-2.72,1.95-4.45h.3ZM84.77-3.12v70h-9.3V-3.12h9.3ZM97.17-3.12c3,0,5.8.4,8.4,1.2,2.6.8,4.82,1.98,6.65,3.55,1.83,1.57,3.28,3.52,4.35,5.85,1.07,2.33,1.6,5.07,1.6,8.2s-.7,6.05-2.1,8.95c-1.4,2.9-3.35,5.28-5.85,7.15-2.5,1.87-5.45,2.87-8.85,3,1.47.54,2.93,1.57,4.4,3.1,1.47,1.53,2.73,3.03,3.8,4.5,0,.07.42.7,1.25,1.9.83,1.2,1.88,2.68,3.15,4.45,1.27,1.77,2.55,3.52,3.85,5.25,1.3,1.73,2.45,3.17,3.45,4.3,1.33,1.6,2.65,2.95,3.95,4.05,1.3,1.1,2.7,1.97,4.2,2.6,1.5.63,3.18.95,5.05.95v1h-7c-3.2,0-6.03-.42-8.5-1.25-2.47-.83-4.6-1.97-6.4-3.4-1.8-1.43-3.33-2.98-4.6-4.65-.27-.47-.82-1.33-1.65-2.6-.83-1.27-1.77-2.71-2.8-4.35-1.03-1.63-2.05-3.25-3.05-4.85-1-1.6-1.87-2.98-2.6-4.15-.73-1.17-1.2-1.92-1.4-2.25-1.13-1.8-2.4-3.35-3.8-4.65s-2.93-1.98-4.6-2.05v-1c.07,0,.55.02,1.45.05.9.03,1.95.02,3.15-.05,1.73-.07,3.58-.37,5.55-.9,1.97-.53,3.77-1.57,5.4-3.1,1.63-1.53,2.85-3.8,3.65-6.8.2-.67.35-1.5.45-2.5.1-1,.12-2.03.05-3.1-.07-4.6-1.22-8.18-3.45-10.75-2.23-2.57-5.15-3.92-8.75-4.05-1.53-.13-3.13-.18-4.8-.15-1.67.03-3.1.05-4.3.05h-2c0-.07-.08-.38-.25-.95-.17-.57-.42-1.42-.75-2.55h13.7ZM84.47,59.58h.3c0,1.73.63,3.22,1.9,4.45,1.27,1.23,2.77,1.85,4.5,1.85h1.2v1h-7.9v-7.3Z"/>
      <path d="M165.1,5.48c4.44,0,8.53.75,12.29,2.25,3.75,1.5,7.02,3.63,9.81,6.4,2.79,2.77,4.96,6.07,6.53,9.9,1.56,3.83,2.34,8.12,2.34,12.85s-.78,9.02-2.34,12.85c-1.56,3.83-3.74,7.13-6.53,9.9-2.79,2.77-6.06,4.9-9.81,6.4-3.75,1.5-7.85,2.25-12.29,2.25s-8.43-.75-12.15-2.25c-3.72-1.5-6.99-3.63-9.81-6.4-2.82-2.77-5-6.07-6.52-9.9-1.53-3.83-2.3-8.12-2.3-12.85s.77-9.02,2.3-12.85c1.53-3.83,3.7-7.13,6.52-9.9,2.82-2.77,6.09-4.9,9.81-6.4,3.72-1.5,7.77-2.25,12.15-2.25ZM165.1,64.98c4.2,0,7.95-1.18,11.25-3.55,3.3-2.37,5.9-5.65,7.79-9.85,1.89-4.2,2.83-9.1,2.83-14.7s-.95-10.58-2.83-14.75c-1.89-4.17-4.49-7.43-7.79-9.8-3.3-2.37-7.05-3.55-11.25-3.55s-7.77,1.18-11.07,3.55c-3.3,2.37-5.91,5.63-7.83,9.8-1.92,4.17-2.88,9.08-2.88,14.75s.96,10.5,2.88,14.7c1.92,4.2,4.53,7.48,7.83,9.85,3.3,2.37,6.99,3.55,11.07,3.55Z"/>
      <path d="M212.02,13.27h-.2c-.07-1.53-.65-2.82-1.75-3.85-1.1-1.03-2.45-1.55-4.05-1.55h-1.2v-1h7.2v6.4ZM212.02,60.48l1.1,6.4h-8.3v-1h1.4c1.6,0,2.92-.53,3.95-1.6,1.03-1.07,1.58-2.33,1.65-3.8h.2ZM220.91,6.88v60h-9.1V6.88h9.1ZM220.62,13.27v-6.4h7.3v1h-1.2c-1.6,0-2.97.52-4.1,1.55-1.13,1.03-1.7,2.32-1.7,3.85h-.3ZM246.62,63.48l.7,3.4h-26.6v-3.4h25.9ZM252.52,51.18l-4.9,15.7h-15.9l3.3-3.4c3.13,0,5.75-.52,7.85-1.55,2.1-1.03,3.85-2.48,5.25-4.35,1.4-1.87,2.53-4,3.4-6.4h1Z"/>
      <path d="M266.01,13.17h-.2c-.07-1.53-.62-2.8-1.65-3.8-1.03-1-2.35-1.5-3.95-1.5h-1.4v-1h8.3l-1.1,6.3ZM266.01,60.48l1.1,6.4h-8.3v-1h1.4c1.6,0,2.92-.53,3.95-1.6,1.03-1.07,1.58-2.33,1.65-3.8h.2ZM274.91,6.88v60h-9.1V6.88h9.1ZM300.92,6.88v3.4h-26.2v-3.4h26.2ZM296.42,35.27v3.4h-21.7v-3.4h21.7ZM300.61,63.48l.7,3.4h-26.6v-3.4h25.9ZM306.52,51.18l-4.9,15.7h-15.9l3.3-3.4c3.13,0,5.75-.52,7.85-1.55,2.1-1.03,3.85-2.48,5.25-4.35,1.4-1.87,2.53-4,3.4-6.4h1ZM300.92,5.27v2.6l-11.1-1c2.07,0,4.23-.18,6.5-.55,2.27-.37,3.8-.72,4.6-1.05ZM296.42,28.77v6.7h-6.4v-.2c1.73,0,3.05-.53,3.95-1.6.9-1.07,1.35-2.33,1.35-3.8v-1.1h1.1ZM296.42,38.48v6.7h-1.1v-1.1c0-1.53-.45-2.82-1.35-3.85-.9-1.03-2.22-1.55-3.95-1.55v-.2h6.4ZM300.92,9.98v8.2h-1v-1.3c0-1.93-.57-3.52-1.7-4.75-1.13-1.23-2.7-1.85-4.7-1.85v-.3h7.4Z"/>
      <path d="M324.71,4.17h-.3c0-1.73-.63-3.22-1.9-4.45-1.27-1.23-2.77-1.85-4.5-1.85h-1.2l-.1-1h8v7.3ZM324.71,59.58v7.3h-8v-1h1.3c1.73,0,3.22-.62,4.45-1.85,1.23-1.23,1.88-2.72,1.95-4.45h.3ZM333.71-3.12v70h-9.3V-3.12h9.3ZM345.21-3.12c4.8,0,8.82.78,12.05,2.35,3.23,1.57,5.7,3.8,7.4,6.7,1.7,2.9,2.55,6.32,2.55,10.25.07,3.13-.52,5.98-1.75,8.55-1.23,2.57-2.88,4.72-4.95,6.45-2.07,1.73-4.42,3.02-7.05,3.85-2.63.83-5.35,1.12-8.15.85-2.8-.27-5.53-1.17-8.2-2.7v-1c2.07.2,3.92.23,5.55.1,1.63-.13,3.33-.53,5.1-1.2,1.77-.67,3.43-1.8,5-3.4,1.57-1.6,2.75-3.77,3.55-6.5.2-.8.37-1.75.5-2.85.13-1.1.17-2.15.1-3.15-.07-4.47-1.25-8.07-3.55-10.8-2.3-2.73-5.55-4.1-9.75-4.1h-10.2c-.33-1.13-.67-2.27-1-3.4h12.8ZM333.41,59.58h.3c.07,1.73.72,3.22,1.95,4.45,1.23,1.23,2.72,1.85,4.45,1.85h1.3v1h-8v-7.3Z"/>
      <path d="M383.51,13.27h-.2c-.07-1.53-.65-2.82-1.75-3.85-1.1-1.03-2.45-1.55-4.05-1.55h-1.2v-1h7.2v6.4ZM383.51,60.48l1.1,6.4h-8.3v-1h1.4c1.6,0,2.92-.53,3.95-1.6,1.03-1.07,1.58-2.33,1.65-3.8h.2ZM392.41,6.88v60h-9.1V6.88h9.1ZM392.11,13.27v-6.4h7.3v1h-1.2c-1.6,0-2.97.52-4.1,1.55-1.13,1.03-1.7,2.32-1.7,3.85h-.3ZM418.11,63.48l.7,3.4h-26.6v-3.4h25.9ZM424.01,51.18l-4.9,15.7h-15.9l3.3-3.4c3.13,0,5.75-.52,7.85-1.55,2.1-1.03,3.85-2.48,5.25-4.35,1.4-1.87,2.53-4,3.4-6.4h1Z"/>
      <path d="M439.41,59.78c-.73,1.93-.63,3.43.3,4.5.93,1.07,2,1.6,3.2,1.6h.8v1h-19.4v-1h.8c1.33,0,2.73-.47,4.2-1.4,1.47-.93,2.73-2.5,3.8-4.7h6.3ZM458.51,5.08l.6,8.6-22.5,52.9h-6.7l23.6-50.6c.07-.13.3-.65.7-1.55.4-.9.85-1.95,1.35-3.15.5-1.2.97-2.37,1.4-3.5.43-1.13.68-2.03.75-2.7h.8ZM469.31,44.77v3.3h-26.2v-3.3h26.2ZM458.51,5.08l28.2,61.2h-10.9l-20.4-49.2,3.1-12ZM473.21,59.78h10.6c1,2.2,2.23,3.77,3.7,4.7,1.47.93,2.87,1.4,4.2,1.4h.8v1h-23.5v-1h.8c1.13,0,2.17-.53,3.1-1.6.93-1.07,1.03-2.57.3-4.5Z"/>
      <path d="M505.21,13.17l-11.1-.3c-1-1.53-2.29-2.75-3.85-3.65-1.57-.9-3.32-1.35-5.25-1.35h-1.2v-1h25.6v1h-1.1c-1.47,0-2.52.58-3.15,1.75-.63,1.17-.62,2.35.05,3.55ZM501.71,6.98l18.6,32.8-7.2,2.8-22.7-35.6h11.3ZM512.61,60.48v6.4h-7.2v-1h1.2c1.6,0,2.93-.53,4-1.6,1.07-1.07,1.63-2.33,1.7-3.8h.3ZM521.51,40.58v26.3h-9.2v-26.2l9.2-.1ZM537.41,6.98h6.7l-23.4,35.7-4.1-1,20.8-34.7ZM521.21,60.48h.3c.07,1.47.65,2.73,1.75,3.8,1.1,1.07,2.42,1.6,3.95,1.6h1.2v1h-7.2v-6.4ZM533.71,13.17c.73-1.27.75-2.47.05-3.6-.7-1.13-1.75-1.7-3.15-1.7h-1.2v-1h21.1v1h-1.2c-1.87,0-3.6.5-5.2,1.5-1.6,1-2.87,2.17-3.8,3.5l-6.6.3Z"/>
      <path d="M557.61,60.68v6.2h-7.5v-1h1.7c1.53,0,2.83-.5,3.9-1.5s1.6-2.23,1.6-3.7h.3ZM557.31,5.38l7.5,8.8.1,52.7h-7.6V17.58c0-3.4-.3-7.47-.9-12.2h.9ZM557.31,5.38l56.5,52,1,10.9-56.4-52.2-1.1-10.7ZM564.91,60.68c0,1.47.55,2.7,1.65,3.7,1.1,1,2.38,1.5,3.85,1.5h1.7v1h-7.5v-6.2h.3ZM607.31,13.08c-.07-1.47-.63-2.7-1.7-3.7-1.07-1-2.37-1.5-3.9-1.5h-1.7v-1h7.5v6.2h-.2ZM614.81,6.88v48.9c0,2.2.07,4.25.2,6.15.13,1.9.37,4.02.7,6.35h-.9l-7.5-8.9V6.88h7.5ZM614.51,13.08v-6.2h7.5v1h-1.7c-1.47,0-2.75.5-3.85,1.5-1.1,1-1.65,2.23-1.65,3.7h-.3Z"/>
    </g>
    <g>
      <rect class="st0" x="15.19" y="-18.12" width="591.53" height="120.45"/>
      <path class="st2" d="M29.19,7.31h-.3c-.07-1.65-.72-3.05-1.95-4.23-1.23-1.17-2.72-1.76-4.45-1.76h-1.3V.38h8v6.94ZM29.19,59.94v6.93h-8v-.95h1.3c1.73,0,3.22-.58,4.45-1.76,1.23-1.17,1.88-2.58,1.95-4.23h.3ZM35.39.38v66.5h-6.5V.38h6.5ZM48.19.38c3,0,5.72.41,8.15,1.23,2.43.82,4.48,2.01,6.15,3.56,1.67,1.55,2.95,3.42,3.85,5.6s1.35,4.67,1.35,7.46c0,3.04-.75,5.95-2.25,8.74-1.5,2.79-3.53,5.05-6.1,6.79-2.57,1.74-5.45,2.61-8.65,2.61,1.13.44,2.37,1.35,3.7,2.71,1.33,1.36,2.5,2.68,3.5,3.94,1.8,2.47,3.38,4.59,4.75,6.37,1.37,1.77,2.75,3.51,4.15,5.22s2.6,3.07,3.6,4.08c1.33,1.39,2.67,2.63,4,3.71,1.33,1.08,2.78,1.93,4.35,2.56,1.57.63,3.32.95,5.25.95v.95h-5.5c-3.07,0-5.72-.44-7.95-1.33-2.23-.89-4.12-1.98-5.65-3.28-1.53-1.3-2.83-2.55-3.9-3.75-.2-.25-.75-.98-1.65-2.18-.9-1.2-1.97-2.64-3.2-4.32-1.23-1.68-2.45-3.34-3.65-4.99-1.2-1.65-2.23-3.05-3.1-4.23-.87-1.17-1.37-1.85-1.5-2.04-1.27-1.58-2.67-3.04-4.2-4.37-1.53-1.33-3.2-2-5-2v-.95c2.07.06,3.83.06,5.3,0,1.73-.06,3.63-.32,5.7-.76,2.07-.44,4-1.36,5.8-2.75,1.8-1.39,3.17-3.52,4.1-6.36.2-.7.37-1.57.5-2.61.13-1.04.17-2.07.1-3.09-.07-4.31-1.22-7.74-3.45-10.31-2.23-2.56-5.22-3.94-8.95-4.13-1.87-.13-3.78-.17-5.75-.14-1.97.03-4.28.05-6.95.05,0-.06-.08-.33-.25-.81-.17-.48-.42-1.19-.75-2.14h14.1ZM35.09,59.94h.3c0,1.65.63,3.06,1.9,4.23,1.27,1.17,2.77,1.76,4.5,1.76h1.2v.95h-7.9v-6.93Z"/>
      <path class="st2" d="M113.72,8.54c4.2,0,8.15.71,11.83,2.14,3.69,1.42,6.93,3.47,9.72,6.13,2.79,2.66,4.96,5.81,6.53,9.45,1.56,3.64,2.34,7.68,2.34,12.11s-.78,8.47-2.34,12.11c-1.56,3.64-3.74,6.79-6.53,9.45-2.79,2.66-6.03,4.7-9.72,6.13s-7.64,2.14-11.83,2.14-8.13-.71-11.79-2.14c-3.66-1.42-6.89-3.47-9.67-6.13-2.79-2.66-4.97-5.81-6.53-9.45-1.56-3.64-2.34-7.68-2.34-12.11s.78-8.47,2.34-12.11c1.56-3.64,3.74-6.79,6.53-9.45,2.79-2.66,6.01-4.7,9.67-6.13,3.66-1.43,7.59-2.14,11.79-2.14ZM113.72,65.36c4.44,0,8.46-1.14,12.06-3.42,3.6-2.28,6.45-5.45,8.55-9.5,2.1-4.05,3.15-8.74,3.15-14.06s-1.05-10.09-3.15-14.11c-2.1-4.02-4.95-7.17-8.55-9.45-3.6-2.28-7.62-3.42-12.06-3.42s-8.37,1.14-11.97,3.42c-3.6,2.28-6.45,5.43-8.55,9.45-2.1,4.02-3.15,8.73-3.15,14.11s1.05,10.01,3.15,14.06c2.1,4.05,4.95,7.22,8.55,9.5,3.6,2.28,7.59,3.42,11.97,3.42Z"/>
      <path class="st2" d="M159.65,15.96h-.2c-.07-1.46-.67-2.67-1.8-3.66-1.13-.98-2.53-1.47-4.2-1.47h-1.2v-.95h7.4v6.08ZM159.65,60.8l1.3,6.08h-8.7v-.95h1.4c1.67,0,3.03-.51,4.1-1.52,1.07-1.01,1.63-2.22,1.7-3.61h.2ZM165.85,9.88v57h-6.4V9.88h6.4ZM165.55,15.96v-6.08h7.4v.95h-1.2c-1.6,0-2.98.49-4.15,1.47-1.17.98-1.75,2.2-1.75,3.66h-.3ZM192.75,63.93l-.2,2.95h-26.9v-2.95h27.1ZM198.35,53.29l-5.5,13.58h-15.2l3.4-2.95c3.33,0,6.02-.46,8.05-1.38,2.03-.92,3.68-2.19,4.95-3.8,1.27-1.62,2.37-3.44,3.3-5.46h1Z"/>
      <path class="st2" d="M211.25,15.86h-.2c-.07-1.46-.63-2.66-1.7-3.61-1.07-.95-2.43-1.42-4.1-1.42h-1.4v-.95h8.7l-1.3,5.98ZM211.25,60.8l1.3,6.08h-8.7v-.95h1.4c1.67,0,3.03-.51,4.1-1.52,1.07-1.01,1.63-2.22,1.7-3.61h.2ZM217.45,9.88v57h-6.4V9.88h6.4ZM244.25,9.88v2.94h-27v-2.94h27ZM239.65,36.95v2.85h-22.4v-2.85h22.4ZM244.35,63.93l-.2,2.95h-26.9v-2.95h27.1ZM249.95,53.29l-5.5,13.58h-15.2l3.4-2.95c3.33,0,6.02-.46,8.05-1.38,2.03-.92,3.68-2.19,4.95-3.8,1.27-1.62,2.37-3.44,3.3-5.46h1ZM244.25,8.35v2.47l-11.4-.95c2.07,0,4.27-.17,6.6-.52,2.33-.35,3.93-.68,4.8-1ZM239.65,31.73v5.42h-5.2v-.19c1.4,0,2.43-.4,3.1-1.19.66-.79,1-1.73,1-2.8v-1.23h1.1ZM239.65,39.61v5.42h-1.1v-1.23c0-1.08-.34-2.01-1-2.8-.67-.79-1.7-1.19-3.1-1.19v-.19h5.2ZM244.25,12.54v6.55h-1.1v-1.42c0-1.33-.45-2.47-1.35-3.42-.9-.95-2.12-1.43-3.65-1.43v-.28h6.1Z"/>
      <path class="st2" d="M266.95,7.31h-.3c0-1.65-.63-3.05-1.9-4.23-1.27-1.17-2.77-1.76-4.5-1.76h-1.2l-.1-.95h8v6.94ZM266.95,59.94v6.93h-8v-.95h1.3c1.73,0,3.22-.58,4.45-1.76,1.23-1.17,1.88-2.58,1.95-4.23h.3ZM273.15.38v66.5h-6.5V.38h6.5ZM285.05.38c4.27,0,7.93.73,11,2.19,3.07,1.46,5.43,3.56,7.1,6.32,1.67,2.75,2.5,6.03,2.5,9.83,0,2.91-.6,5.53-1.8,7.84-1.2,2.31-2.8,4.26-4.8,5.84-2,1.58-4.27,2.77-6.8,3.56-2.53.79-5.15,1.09-7.85.9-2.7-.19-5.32-.92-7.85-2.18v-.95c2.27.32,4.28.43,6.05.33,1.77-.1,3.63-.44,5.6-1.05,1.97-.6,3.8-1.66,5.5-3.18s2.98-3.64,3.85-6.37c.2-.7.37-1.57.5-2.61.13-1.04.17-2.07.1-3.09-.07-4.37-1.27-7.88-3.6-10.54-2.33-2.66-5.63-3.99-9.9-3.99h-11.8c-.33-.95-.67-1.9-1-2.85h13.2ZM272.85,59.94h.3c.07,1.65.72,3.06,1.95,4.23,1.23,1.17,2.71,1.76,4.45,1.76h1.3v.95h-8v-6.93Z"/>
      <path class="st2" d="M323.55,15.96h-.2c-.07-1.46-.67-2.67-1.8-3.66-1.13-.98-2.54-1.47-4.2-1.47h-1.2v-.95h7.4v6.08ZM323.55,60.8l1.3,6.08h-8.7v-.95h1.4c1.67,0,3.03-.51,4.1-1.52,1.07-1.01,1.63-2.22,1.7-3.61h.2ZM329.75,9.88v57h-6.4V9.88h6.4ZM329.45,15.96v-6.08h7.4v.95h-1.2c-1.6,0-2.98.49-4.15,1.47-1.17.98-1.75,2.2-1.75,3.66h-.3ZM356.65,63.93l-.2,2.95h-26.9v-2.95h27.1ZM362.25,53.29l-5.5,13.58h-15.2l3.4-2.95c3.33,0,6.02-.46,8.05-1.38,2.03-.92,3.68-2.19,4.95-3.8,1.27-1.62,2.37-3.44,3.3-5.46h1Z"/>
      <path class="st2" d="M378.55,59.94c-.73,1.9-.63,3.37.3,4.42s2,1.57,3.2,1.57h.8v.95h-19.1v-.95h.8c1.4,0,2.83-.46,4.3-1.38,1.47-.92,2.73-2.45,3.8-4.61h5.9ZM397.85,8.54l.7,6.56-22.9,51.49h-6.3l23.7-48.26c.73-1.52,1.35-2.83,1.85-3.94.5-1.11.95-2.2,1.35-3.28.4-1.08.63-1.93.7-2.56h.9ZM409.65,44.74v2.85h-26.5v-2.85h26.5ZM397.85,8.54l27.5,57.76h-7.9l-21.3-49.31,1.7-8.46ZM414.75,59.94h7.6c1,2.15,2.23,3.69,3.7,4.61,1.47.92,2.87,1.38,4.2,1.38h.8v.95h-20.5v-.95h.8c1.13,0,2.17-.52,3.1-1.57.93-1.04,1.03-2.52.3-4.42Z"/>
      <path class="st2" d="M442.95,15.86l-8.5-.28c-1.07-1.46-2.38-2.61-3.95-3.47-1.57-.85-3.32-1.28-5.25-1.28h-1.2v-.95h23.2v.95h-1.2c-1.47,0-2.52.56-3.15,1.66-.63,1.11-.62,2.23.05,3.37ZM439.45,9.97l18.5,31.25-4.1,3.33-23.1-34.58h8.7ZM453.25,60.8v6.08h-7.3v-.95h1.2c1.6,0,2.95-.51,4.05-1.52,1.1-1.01,1.68-2.22,1.75-3.61h.3ZM459.45,42.37v24.51h-6.5v-24.51h6.5ZM476.25,9.97h6.3l-23.8,34.39-3.7-1.04,21.2-33.34ZM459.15,60.8h.3c.07,1.39.65,2.6,1.75,3.61,1.1,1.01,2.45,1.52,4.05,1.52h1.2v.95h-7.3v-6.08ZM472.45,15.96c.73-1.27.77-2.44.1-3.52-.67-1.08-1.73-1.61-3.2-1.61h-1.2v-.95h20.9v.95h-1.2c-1.87,0-3.62.49-5.25,1.47-1.63.98-2.92,2.11-3.85,3.37l-6.3.29Z"/>
      <path class="st2" d="M497.55,60.99v5.89h-7.5v-.95h1.7c1.53,0,2.83-.47,3.9-1.42s1.6-2.12,1.6-3.51h.3ZM497.35,8.45l4.3,5.32.1,53.11h-4.5V20.33c0-3.23-.3-7.19-.9-11.88h1ZM497.35,8.45l55.4,49.59,1,10.17-55.4-49.88-1-9.88ZM501.75,60.99c0,1.39.55,2.56,1.65,3.51,1.1.95,2.38,1.42,3.85,1.42h1.7v.95h-7.5v-5.89h.3ZM549.35,15.77c-.07-1.39-.63-2.56-1.7-3.52s-2.37-1.42-3.9-1.42h-1.7v-.95h7.5v5.89h-.2ZM553.75,9.88v46.17c0,2.03.07,3.98.2,5.84.13,1.87.37,3.97.7,6.32h-.9l-4.4-5.04V9.88h4.4ZM553.45,15.77v-5.89h7.5v.95h-1.7c-1.47,0-2.75.47-3.85,1.42-1.1.95-1.65,2.12-1.65,3.52h-.3Z"/>
    </g>
  </g>
  <g id="_レイヤー_7" data-name="レイヤー_7">
    <g>
      <line class="st4" x1=".02" y1="90.93" x2="590.22" y2="68.21"/>
      <g>
        <path class="st1" d="M1.41,90.33c-2.16.15,1.18.21-1.41.17.29-.13.7-.23,1.41-.17Z"/>
        <path class="st1" d="M583.01,68.11c-6.94,1.03-16.16.61-23.78,1.39-.89.07.22-.43-1.8-.25-7.38.88-19.06.97-28.1.86l.54-.14c-1.72-.02-3.8.45-5.63.47-.02-.08.58-.13.15-.22-.45.25-3.29.24-4.05.44-.72-.06-.66-.25-1.59-.32l-1.03.31c-2.87.75-7.04.23-10.98.71.19-.07.58-.13.26-.18-6.33.63-14.27.87-21.36,1.28.28-.11.53-.29.11-.38-.34.3-2.53.45-4.43.58-.87-.26-3.25.39-5.49.32l.19-.07c-1.64.37-2.45-.08-3.78.34l-1.05-.19c-.71.44-2.39-.12-3.75.14l.05.08c-1.28.15-1.96-.03-3.15.08l-.11-.04c-2.79.22-4.42.05-4.34.37-.99-.22,2.7-.22,1.15-.53-9.17.68-18.63.98-27.87,1.34-1.05-.09-1.72-.1-1.96-.21-.92.1-3.47.19-4.31.39.31-.02-.6-.14-1.09-.14-1.69-.06-1.82.42-3.67.35.73-.11.98-.23.73-.34-1.57.31-3.67.35-5.53.5.29-.07.74-.11.66-.21-2.02.36-3.71.08-5.49.33l.66-.21c-2.88-.11-.83.42-3.32.38.59-.08.38-.15.49-.22-2.3.43-6.05.46-8.36.66.14-.03.1-.08.1-.08-2.52.14-5.15.14-7.91.39-1.01-.04.31-.46-2.35-.29.11.37-4.52.33-2.93.69-2.28.03-5.88.03-7.4.21,1.02-.18-1.13-.41.76-.52l-1.44-.17c.21-.16,1.47,0,1.01-.18-.95.05-3.71.3-4.56.28-1.75.3-3.34.78-6.19.94,1.33-.2-.78-.38.13-.48l-3.94.86c-.95.05-.22-.29-1.58-.14.08.1-.52.18-.93.27-.36-.03-3.93.24-4.35-.11-.42-.13,1.54-.14.49-.23-1.75.07-1.82.2-3.57.27l-.03-.05c-1.16,0-3.4.29-2.13.44.8-.02-.31-.21.88-.15-.8.24-2.83.38-4.58.45.59-.08.52-.18.75-.29-2.34.38-4.82.56-7.44.78-.03.18.97-.35,1.36-.28-3.37-.11-6.93.61-9.74.36.46-.05.26.24.22.19-1.62.04-1.56-.21-2.61-.08-.11-.14-1.32.1-2.41.18-.56.13-.29-.06.66-.11-1.51.18-7.56.64-11.06.56.07.1-2.14.44-2.94.46l.31-.24c-.74-.11-2.69.12-2.83-.07-1.71.34,6.6-.49,4.29-.19-.61-.17-3.22.49-2.73.16-1.62.07-3.17.39-4.72.23.45.02,1.3-.37,0-.3-2.29.13-.65.13-2.51.28l-1.16.14c-.07.23-2.05.05-1.19.26-.29-.17-3.33.24-3.11-.14l.31-.3c-.99.06-1.61.37-2.39.53-.13-.02-.39-.07-.35-.12-.14.45-2.37.05-3.54.44-2.09-.07-5.29.19-6.28-.05-1.59.2-3.05.41-4.88.39.36-.06.86-.09.96-.19-1.15-.09-1.43.04-2.47.15.23-.08-2.3-.17-3.58-.28-1.58.19-1.03.41-1.18.57-1.47-.38-4.48.46-6.31.13.55-.08,2.31-.3.98-.36-1.47-.38-2.92.44-5.27.32l.59.34c-1.05-.19-3.44.34-3.22-.04-.78.16-2.77-.01-2.49.33-3.86-.15-9.35.54-11.74,0-.55.08-1.93.07-1.64.24.92.16,1.27-.19,1.62-.07-.49.03-.6.13-.65.18-1.2-.04-2.14-.02-1.02-.36-2.67-.12-2.72.71-6.12.7.15-.15-.11-.2-1.1-.14l-1.87.32c-2.19.03-1.26-.29-1.32-.53-1.17.09-2.6.13-3.13.34l-1.43-.26c1.04.19-.96.19-1.51.27l.55-.08c-.22-.1-1.57.02-2.25.08.17.15,1.55.16,2.31.17-.59.13-1.53.14-2.31.3.25-.25-1.91-.1-2.85-.09-1.07-.01-1.19.27-1.51.27-.03-.13-1.74.05-.92-.16.36-.05.84.09,1.43-.04-.71-.07-.63-.29-2.09-.07-1.1.16.3.47-1.79.4.55-.08.64-.18,1.06-.29l-1.96-.05-.07.23c-.27-.05-.08-.07-.21-.1-.57.26-2.98.19-3.41.47-.99.06-2.08-.07-3.02-.06l.18-.03c-1.16-.09-2.68.06-3.64.25l.05-.05c-.63,0-2.11.1-2.89.26-1.6-.11-.57-.82-2.31-.47-1.61.07-2.51.5-1.86.62-2.9-.04-6.17.45-8.87.21-.41.11-.15.15-1,.24-4.26.08-8.97.61-12.37.3,1.23-.14.07-.23.04-.35-1.01.24-1.23-.16-1.58.2.11.2.01.3,1.21.33-2.53.21-6.39.35-7.8.22.71.07.17.15-.39.23.17-.33-1.7-.3-3.11-.14l-.19.2-.93-.17c-.54.08-.59.43-2,.3-.07-.07-.16-.15-.42-.19-1.46.22-3.51.57-5.11.46l-1.31-.24c-.68.06-1.81.27-.61.31-2.72-.07-4.47-.02-5.33-.24-4.64.78-11.42,1.07-16.85,1.23l.15-.15c-1.46-.08-.75.29-1.77.22.47-.16-1.12-.26.02-.48-2.09-.07-2.68.36-4.03.48-.2.2,1.09-.16.83.09-.23.08-2.89-.04-3.2.26-.53-.09-.13-.32.15-.45l-1.27.19c-1.57-.28,3.53-.74,1.88-1.1l-1.17.09c-1.13-.26,3.09-.46.14-.45-1.27.19-2.35.66-1.21.74-2.66.18-1.21.74-4.07.83-.79-.14,2.29-.13,1.73-.35-1.36-.18-2.7.24-3.9.2,1.34.06.22.4-.64.48-1.46-.08.93-.31-1.13-.26-.33.18-2.23.38-.58.43-.73.41-2.15-.02-3.26.32-.68-.24,2.1-.7-.17-.75.37.24-2.78.46-1.57.79-.89-.04-.99-.24-.35-.42-1.28-.11-3.06.59-3.5.09l-.43.28c-.4-.07-.97-.11-1.63-.23-1.12.04-3.59.5-3.5.09-.36.05-2.91.14-1.92.37,1.59.11,1.82-.27,2.71.07-1.13-.26-2.29.13-3.2.26l-.16-.15c-.54.08-1.8.1-2.14.28.41-.1.19-.2-.24-.22l-.56.26c-2.22.2-.54-.39-2.7-.24l1.63-.24c-.36.05-1.1-.14-2.13-.02-.39.23-1.14.51-1.48.69-1.21.14-.55-.22-1.74.05l1.56-.32c.23-.08-1.07-.31-2.7-.24-1.04.11-2.64.48-.99.54-.82.03-1.97-.05-1.32-.23-1.85.14.25.22-1.34.41-.66-.12-2.7-.24-3.93-.4l1.65-.42-1.11.04c1.42-.34-.73-.19.06-.52-.76-.02-1.67.12-2.4.23,2.23.4-2.45.76-1.79,1.17-3.02.24-1.93-1-5.07-.19.52.09-.96.49.95.29-1.88.02-1.26.49-3.49.39,1.64-.24-1.78-.38.58-.73-.15.15,1.33.06,1.69,0-.78-.14.14-.45-1.79-.38-1.17.09-2.79.16-2.55.38.06.25,1.8-.1,1.05.19-2.34.18-2.75-.19-3.7.29,1.48-.09,1.86.15,1.84.33l-1.72.17.33-.18c-2.76-.01-.8.34-3.48.39l-1.27-.28c.63-.31,3.9-.02,3.4-.47-1.74.05-2.31.31-3.95.25.36-.05.86-.08,1.22-.14-.62,0-1.27-.58-3.73-.13-1.27.19-.33.18-.36.35-2.79.16-3.62.37-5.41.47.36-.35-3.18.09-1.21-.33.92.16,4.96-.01,5.94-.37-1.03-.36,2.19-.03,2.78-.46-2.24.08-2.15-.32-2.52-.57-.62,0-1.22.14-1.59.19-.25.25.56.22.62.47-2.5.03-4.9.26-6.27.55-.84-.09-.59-.34.4-.4-2.97.19-6.15.28-8.97.31,1.84.33-3.15.22-1.89.5,1.52.03,2.83.27,2,.48-.95.01.02-.18-.38-.25-1.2.26-1.89-.28-3.05.11,2.71-.23.51-.51,1-.84-1.95.25.07-.23-1.86-.15-1.95.25-4.34.48-6.5.63-2.74-.19-6.9.26-9.33.37-1.28-.11-.43-.5-1.82-.5-1.62.07,1.22.34-1.19.27l.23-.08c-.72.11-4.41-.07-5.1.46l.73-.41c-.45-.02-.86.09-1.23.14-.02-.12-.55-.22.18-.33-1.49-.21-3.11.16-4.72.23l1.04.19c-2.75.28-4.61.13-7.27.31l.07-.23-1.58.19c.38-.23-1.08-.31-1.91-.1l4.1-.7c1.15.09-1.24.32-.51.51.62.17,3.08.01,3.47-.22-.95.01-.99.06-1.72.17-.32-.3,1.11-.34,1.81-.57-.49.03-1.2-.04-1.3.07.96-.19,1.95-.25,3.56-.32-1.09.16.6.17.19.27.12-.28,1.66-.42,3.67-.42,1.44.26,3.75-.35,6.07-.35-.93.31-2.12.58-3.53.74,1.46.08,1.62-.07,3.08.01.7-.23,1.19-.57,3.08-.76l.11.2c1.72-.17,1.71-.47,3.9-.5,3.76-.04,7.62-.19,10.48-.28l.12.2c1.58-.49,5.3-.36,7.44-.64,3.66.05,7.92-.5,9.81-.22,6.43-.4,12.06-.77,18.74-.96l-1.11.34c1.19-.26.78.14,1.95.05-1.36-.18,1.61-.37,2.44-.58,2.98.11,6.79-.28,9.41-.59l.11.2c2.65-.48,5.84-.27,9.16-.34.38.07.99.24,1.98.18,1.79-.4,2.73-.41,5.36-.72,1.93-.07,5.06-.11,7.02-.06,7.23-.74,14.65-.73,22.17-1.3l.55.22c7.29-.79,16.29-.67,22.51-1.18l-.59.43c1.96.05,4.45-.28,3.94-.55,1.96.05,4.88-.39,6.14-.1,2.01,0,2.45-.28,4.11-.4,4.02,0,5.51-.09,9.28-.31h-.94c-.41.12-.44.29.5.28,1.4-.17,5.19-.09,3.77-.52,4.05.13,9.41-.59,13.35-.36-.34-.12.65-.18,1.07-.29,3.54-.14,7.28-.01,10.09-.35.57.04-.89.26.55.22.85-.08.01-.17,1.06-.29,5.73-.47,11.63-.19,16.84-.46,9.27-.61,18.95-.86,27.83-1.24l-.1.1c2.96-.49,7,.11,9.35-.54.71.07,2.69-.06,2.17.15,2.36-.35,6.65,0,10.06-.47-.31,0-.49.03-.86.09,3.47.08,6.51-.33,10.17-.28-.37.06-1.04.11-1.15.21,1.42.13,3.33-.54,4.12-.1.81-.04.57-.26.07-.23,8.01-.13,16.53-.75,24.84-1.18,5.97.05.39.78,5.09.25.39.08.27-.19.34-.1,1.82-.2,2.85.42,4.11.12-.53-.27.83-.19.87-.37,3.65.05,4.39.28,7.26-.05l-.21.16c3.36-.56,7.27-.48,10.1-1.08,18.6-.81,36.42-1.77,54.55-2.52,17.93-.6,35.48-1.49,53.69-1.93,4.28.24,4.6.21,9.28-.13-.19.07-.48.1-.16.15.22-.34,3.3-.16,3.73-.49,6.73-.2,12.93-.53,19.85-.79-1.09.08-1.63.37-.33.29l1.35-.26.22.08c.89-.08,1.85-.28.93-.35,17.39-.95,34.53-.95,51.56-1.69,4.05-.02,9.81-.37,14.2-.6,13.05-.06,24.81-.16,38.03-.98,0,0-1.69.91-7.15,1.32Z"/>
        <path class="st1" d="M4.02,90.2c.47.15,1.99.18.79.44-.16-.15-.94-.29-.79-.44Z"/>
        <path class="st1" d="M44.54,90.33c.05-.05.58.04.71.07-.5.03-.96.19-1.36.12.5-.03.42-.11.65-.18Z"/>
        <path class="st1" d="M54.89,90.03c-.15.15-2.36.35-3.67.42l3.67-.42Z"/>
        <path class="st1" d="M64.55,90.26c.84.09.61.17-.51.21-.08-.07.28-.13.51-.21Z"/>
        <path class="st1" d="M65.23,89.9c.8-.03,1.2.04,1.6.1-.04-.12-1.85.15-1.6-.1Z"/>
        <path class="st1" d="M86.17,89.52c.5-.03,1.59-.19,2.06-.05-.53-.09-2.44.28-2.06.05Z"/>
        <path class="st1" d="M95.89,88.92c.31,0,.44.02.81-.04.58.04-.02.17-.51.21l-.3-.17Z"/>
        <polygon class="st1" points="272.9 81.52 271.86 81.63 272.01 81.48 272.9 81.52"/>
        <path class="st1" d="M350.48,78.53c1.05-.13.74.11.91.12-.95.05.34-.19-.91-.12Z"/>
        <polygon class="st1" points="392.28 76.19 391.97 76.2 392.06 75.9 392.28 76.19"/>
      </g>
    </g>
    <g>
      <path class="st2" d="M34.37,7.31h-.3c-.07-1.65-.72-3.05-1.95-4.23-1.23-1.17-2.72-1.76-4.45-1.76h-1.3V.38h8v6.94ZM34.37,59.94v6.93h-8v-.95h1.3c1.73,0,3.22-.58,4.45-1.76,1.23-1.17,1.88-2.58,1.95-4.23h.3ZM40.57.38v66.5h-6.5V.38h6.5ZM53.37.38c3,0,5.72.41,8.15,1.23,2.43.82,4.48,2.01,6.15,3.56,1.67,1.55,2.95,3.42,3.85,5.6s1.35,4.67,1.35,7.46c0,3.04-.75,5.95-2.25,8.74-1.5,2.79-3.53,5.05-6.1,6.79-2.57,1.74-5.45,2.61-8.65,2.61,1.13.44,2.37,1.35,3.7,2.71,1.33,1.36,2.5,2.68,3.5,3.94,1.8,2.47,3.38,4.59,4.75,6.37,1.37,1.77,2.75,3.51,4.15,5.22s2.6,3.07,3.6,4.08c1.33,1.39,2.67,2.63,4,3.71,1.33,1.08,2.78,1.93,4.35,2.56,1.57.63,3.32.95,5.25.95v.95h-5.5c-3.07,0-5.72-.44-7.95-1.33-2.23-.89-4.12-1.98-5.65-3.28-1.53-1.3-2.83-2.55-3.9-3.75-.2-.25-.75-.98-1.65-2.18-.9-1.2-1.97-2.64-3.2-4.32-1.23-1.68-2.45-3.34-3.65-4.99-1.2-1.65-2.23-3.05-3.1-4.23-.87-1.17-1.37-1.85-1.5-2.04-1.27-1.58-2.67-3.04-4.2-4.37-1.53-1.33-3.2-2-5-2v-.95c2.07.06,3.83.06,5.3,0,1.73-.06,3.63-.32,5.7-.76,2.07-.44,4-1.36,5.8-2.75,1.8-1.39,3.17-3.52,4.1-6.36.2-.7.37-1.57.5-2.61.13-1.04.17-2.07.1-3.09-.07-4.31-1.22-7.74-3.45-10.31-2.23-2.56-5.22-3.94-8.95-4.13-1.87-.13-3.78-.17-5.75-.14-1.97.03-4.28.05-6.95.05,0-.06-.08-.33-.25-.81-.17-.48-.42-1.19-.75-2.14h14.1ZM40.27,59.94h.3c0,1.65.63,3.06,1.9,4.23,1.27,1.17,2.77,1.76,4.5,1.76h1.2v.95h-7.9v-6.93Z"/>
      <path class="st2" d="M118.9,8.54c4.2,0,8.15.71,11.83,2.14,3.69,1.42,6.93,3.47,9.72,6.13,2.79,2.66,4.96,5.81,6.53,9.45,1.56,3.64,2.34,7.68,2.34,12.11s-.78,8.47-2.34,12.11c-1.56,3.64-3.74,6.79-6.53,9.45-2.79,2.66-6.03,4.7-9.72,6.13s-7.64,2.14-11.83,2.14-8.13-.71-11.79-2.14c-3.66-1.42-6.89-3.47-9.67-6.13-2.79-2.66-4.97-5.81-6.53-9.45-1.56-3.64-2.34-7.68-2.34-12.11s.78-8.47,2.34-12.11c1.56-3.64,3.74-6.79,6.53-9.45,2.79-2.66,6.01-4.7,9.67-6.13,3.66-1.43,7.59-2.14,11.79-2.14ZM119.03,65.37c24.37-.01,31.99-36.43,12.78-49.06-11.02-7.66-27.33-3.54-33.36,8.5-8.63,16.01.54,40.49,20.38,40.56h.19Z"/>
      <path class="st2" d="M164.83,15.96h-.2c-.07-1.46-.67-2.67-1.8-3.66-1.13-.98-2.53-1.47-4.2-1.47h-1.2v-.95h7.4v6.08ZM164.83,60.8l1.3,6.08h-8.7v-.95h1.4c1.67,0,3.03-.51,4.1-1.52,1.07-1.01,1.63-2.22,1.7-3.61h.2ZM171.03,9.88v57h-6.4V9.88h6.4ZM170.73,15.96v-6.08h7.4v.95h-1.2c-1.6,0-2.98.49-4.15,1.47-1.17.98-1.75,2.2-1.75,3.66h-.3ZM197.93,63.93l-.2,2.95h-26.9v-2.95h27.1ZM203.53,53.29l-5.5,13.58h-15.2l3.4-2.95c3.33,0,6.02-.46,8.05-1.38,2.03-.92,3.68-2.19,4.95-3.8,1.27-1.62,2.37-3.44,3.3-5.46h1Z"/>
      <path class="st2" d="M216.43,15.86h-.2c-.07-1.46-.63-2.66-1.7-3.61-1.07-.95-2.43-1.42-4.1-1.42h-1.4v-.95h8.7l-1.3,5.98ZM216.43,60.8l1.3,6.08h-8.7v-.95h1.4c1.67,0,3.03-.51,4.1-1.52,1.07-1.01,1.63-2.22,1.7-3.61h.2ZM222.63,9.88v57h-6.4V9.88h6.4ZM249.43,9.88v2.94h-27v-2.94h27ZM244.83,36.95v2.85h-22.4v-2.85h22.4ZM249.53,63.93l-.2,2.95h-26.9v-2.95h27.1ZM255.13,53.29l-5.5,13.58h-15.2l3.4-2.95c3.33,0,6.02-.46,8.05-1.38,2.03-.92,3.68-2.19,4.95-3.8,1.27-1.62,2.37-3.44,3.3-5.46h1ZM249.43,8.35v2.47l-11.4-.95c2.07,0,4.27-.17,6.6-.52,2.33-.35,3.93-.68,4.8-1ZM244.83,31.73v5.42h-5.2v-.19c1.4,0,2.43-.4,3.1-1.19.66-.79,1-1.73,1-2.8v-1.23h1.1ZM244.83,39.61v5.42h-1.1v-1.23c0-1.08-.34-2.01-1-2.8-.67-.79-1.7-1.19-3.1-1.19v-.19h5.2ZM249.43,12.54v6.55h-1.1v-1.42c0-1.33-.45-2.47-1.35-3.42-.9-.95-2.12-1.43-3.65-1.43v-.28h6.1Z"/>
      <path class="st2" d="M272.13,7.31h-.3c0-1.65-.63-3.05-1.9-4.23-1.27-1.17-2.77-1.76-4.5-1.76h-1.2l-.1-.95h8v6.94ZM272.13,59.94v6.93h-8v-.95h1.3c1.73,0,3.22-.58,4.45-1.76,1.23-1.17,1.88-2.58,1.95-4.23h.3ZM278.33.38v66.5h-6.5V.38h6.5ZM290.23.38c4.27,0,7.93.73,11,2.19,3.07,1.46,5.43,3.56,7.1,6.32,1.67,2.75,2.5,6.03,2.5,9.83,0,2.91-.6,5.53-1.8,7.84-1.2,2.31-2.8,4.26-4.8,5.84-2,1.58-4.27,2.77-6.8,3.56-2.53.79-5.15,1.09-7.85.9-2.7-.19-5.32-.92-7.85-2.18v-.95c2.27.32,4.28.43,6.05.33,1.77-.1,3.63-.44,5.6-1.05,1.97-.6,3.8-1.66,5.5-3.18s2.98-3.64,3.85-6.37c.2-.7.37-1.57.5-2.61.13-1.04.17-2.07.1-3.09-.07-4.37-1.27-7.88-3.6-10.54-2.33-2.66-5.63-3.99-9.9-3.99h-11.8c-.33-.95-.67-1.9-1-2.85h13.2ZM278.03,59.94h.3c.07,1.65.72,3.06,1.95,4.23,1.23,1.17,2.71,1.76,4.45,1.76h1.3v.95h-8v-6.93Z"/>
      <path class="st2" d="M326.73,15.96h-.2c-.07-1.46-.67-2.67-1.8-3.66-1.13-.98-2.54-1.47-4.2-1.47h-1.2v-.95h7.4v6.08ZM326.73,60.8l1.3,6.08h-8.7v-.95h1.4c1.67,0,3.03-.51,4.1-1.52,1.07-1.01,1.63-2.22,1.7-3.61h.2ZM332.93,9.88v57h-6.4V9.88h6.4ZM332.63,15.96v-6.08h7.4v.95h-1.2c-1.6,0-2.98.49-4.15,1.47-1.17.98-1.75,2.2-1.75,3.66h-.3ZM359.83,63.93l-.2,2.95h-26.9v-2.95h27.1ZM365.43,53.29l-5.5,13.58h-15.2l3.4-2.95c3.33,0,6.02-.46,8.05-1.38,2.03-.92,3.68-2.19,4.95-3.8,1.27-1.62,2.37-3.44,3.3-5.46h1Z"/>
      <path class="st2" d="M382.73,59.94c-.73,1.9-.63,3.37.3,4.42s2,1.57,3.2,1.57h.8v.95h-19.1v-.95h.8c1.4,0,2.83-.46,4.3-1.38,1.47-.92,2.73-2.45,3.8-4.61h5.9ZM402.03,8.54l.7,6.56-22.9,51.49h-6.3l23.7-48.26c.73-1.52,1.35-2.83,1.85-3.94.5-1.11.95-2.2,1.35-3.28.4-1.08.63-1.93.7-2.56h.9ZM413.83,44.74v2.85h-26.5v-2.85h26.5ZM402.03,8.54l27.5,57.76h-7.9l-21.3-49.31,1.7-8.46ZM418.93,59.94h7.6c1,2.15,2.23,3.69,3.7,4.61,1.47.92,2.87,1.38,4.2,1.38h.8v.95h-20.5v-.95h.8c1.13,0,2.17-.52,3.1-1.57.93-1.04,1.03-2.52.3-4.42Z"/>
      <path class="st2" d="M442.13,15.86l-8.5-.28c-1.07-1.46-2.38-2.61-3.95-3.47-1.57-.85-3.32-1.28-5.25-1.28h-1.2v-.95h23.2v.95h-1.2c-1.47,0-2.52.56-3.15,1.66-.63,1.11-.62,2.23.05,3.37ZM438.63,9.97l18.5,31.25-4.1,3.33-23.1-34.58h8.7ZM452.43,60.8v6.08h-7.3v-.95h1.2c1.6,0,2.95-.51,4.05-1.52,1.1-1.01,1.68-2.22,1.75-3.61h.3ZM458.63,42.37v24.51h-6.5v-24.51h6.5ZM475.43,9.97h6.3l-23.8,34.39-3.7-1.04,21.2-33.34ZM458.33,60.8h.3c.07,1.39.65,2.6,1.75,3.61,1.1,1.01,2.45,1.52,4.05,1.52h1.2v.95h-7.3v-6.08ZM471.63,15.96c.73-1.27.77-2.44.1-3.52-.67-1.08-1.73-1.61-3.2-1.61h-1.2v-.95h20.9v.95h-1.2c-1.87,0-3.62.49-5.25,1.47-1.63.98-2.92,2.11-3.85,3.37l-6.3.29Z"/>
      <path class="st2" d="M496.73,60.99v5.89h-7.5v-.95h1.7c1.53,0,2.83-.47,3.9-1.42s1.6-2.12,1.6-3.51h.3ZM496.53,8.45l4.3,5.32.1,53.11h-4.5V20.33c0-3.23-.3-7.19-.9-11.88h1ZM496.53,8.45l49.4,49.59,1,10.17-49.4-49.88-1-9.88ZM500.93,60.99c0,1.39.55,2.56,1.65,3.51,1.1.95,2.38,1.42,3.85,1.42h1.7v.95h-7.5v-5.89h.3ZM542.53,15.77c-.07-1.39-.63-2.56-1.7-3.52s-2.37-1.42-3.9-1.42h-1.7v-.95h7.5v5.89h-.2ZM546.93,9.88v46.17c0,2.03.07,3.98.2,5.84.13,1.87.37,3.97.7,6.32h-.9l-4.4-5.04V9.88h4.4ZM546.63,15.77v-5.89h7.5v.95h-1.7c-1.47,0-2.75.47-3.85,1.42-1.1.95-1.65,2.12-1.65,3.52h-.3Z"/>
    </g>
  </g>
  <g id="_レイヤー_6" data-name="レイヤー_6" class="st7">
    <g>
      <path class="st3" d="M10.86,4.17h-.3c-.07-1.73-.72-3.22-1.95-4.45-1.23-1.23-2.72-1.85-4.45-1.85h-1.3v-1h8v7.3ZM10.86,59.58v7.3H2.86v-1h1.3c1.73,0,3.22-.62,4.45-1.85,1.23-1.23,1.88-2.72,1.95-4.45h.3ZM17.06-3.12v70h-6.5V-3.12h6.5ZM29.86-3.12c3,0,5.72.43,8.15,1.3,2.43.87,4.48,2.12,6.15,3.75,1.67,1.63,2.95,3.6,3.85,5.9.9,2.3,1.35,4.92,1.35,7.85,0,3.2-.75,6.27-2.25,9.2-1.5,2.93-3.53,5.32-6.1,7.15-2.57,1.83-5.45,2.75-8.65,2.75,1.13.47,2.37,1.42,3.7,2.85,1.33,1.43,2.5,2.82,3.5,4.15,1.8,2.6,3.38,4.83,4.75,6.7,1.37,1.87,2.75,3.7,4.15,5.5,1.4,1.8,2.6,3.23,3.6,4.3,1.33,1.47,2.67,2.77,4,3.9,1.33,1.13,2.78,2.03,4.35,2.7,1.57.67,3.32,1,5.25,1v1h-5.5c-3.07,0-5.72-.47-7.95-1.4-2.23-.93-4.12-2.08-5.65-3.45-1.53-1.37-2.83-2.68-3.9-3.95-.2-.27-.75-1.03-1.65-2.3-.9-1.27-1.97-2.78-3.2-4.55-1.23-1.76-2.45-3.52-3.65-5.25-1.2-1.73-2.23-3.22-3.1-4.45-.87-1.23-1.37-1.95-1.5-2.15-1.27-1.67-2.67-3.2-4.2-4.6-1.53-1.4-3.2-2.1-5-2.1v-1c2.07.07,3.83.07,5.3,0,1.73-.07,3.63-.33,5.7-.8,2.07-.47,4-1.43,5.8-2.9,1.8-1.47,3.17-3.7,4.1-6.7.2-.73.37-1.65.5-2.75.13-1.1.17-2.18.1-3.25-.07-4.53-1.22-7.15-3.45-9.85-2.23-2.7-5.22-4.15-8.95-4.35-1.87-.13-3.78-.18-5.75-.15-1.97.03-4.28.05-6.95.05,0-.07-.08-1.35-.25-1.85-.17-.5-.42-1.25-.75-2.25h14.1ZM16.76,59.58h.3c0,1.73.63,3.22,1.9,4.45,1.27,1.23,2.77,1.85,4.5,1.85h1.2v1h-7.9v-7.3Z"/>
      <path class="st3" d="M97.39,5.48c4.2,0,8.15.75,11.83,2.25s6.93,3.65,9.72,6.45c2.79,2.8,4.96,6.12,6.53,9.95,1.56,3.83,2.34,8.08,2.34,12.75s-.78,8.92-2.34,12.75c-1.56,3.83-3.74,7.15-6.53,9.95-2.79,2.8-6.03,4.95-9.72,6.45s-7.64,2.25-11.83,2.25-8.13-.75-11.79-2.25c-3.66-1.5-6.89-3.65-9.67-6.45-2.79-2.8-4.97-6.12-6.53-9.95-1.56-3.83-2.34-8.08-2.34-12.75s.78-8.92,2.34-12.75c1.56-3.83,3.74-7.15,6.53-9.95,2.79-2.8,6.01-4.95,9.67-6.45,3.66-1.5,7.59-2.25,11.79-2.25ZM97.39,65.28c4.44,0,8.46-1.2,12.06-3.6,3.6-2.4,6.45-5.73,8.55-10,2.1-4.27,3.15-9.2,3.15-14.8s-1.05-9.62-3.15-13.85c-9.44-18.08-31.71-18.06-41.13,0-2.1,4.23-3.15,8.18-3.15,13.85s1.05,10.53,3.15,14.8c2.1,4.27,4.95,7.6,8.55,10,3.6,2.4,7.59,3.6,11.97,3.6Z"/>
      <path class="st3" d="M145.12,13.27h-.2c-.07-1.53-.67-2.82-1.8-3.85-1.13-1.03-2.53-1.55-4.2-1.55h-1.2v-1h7.4v6.4ZM145.12,60.48l1.3,6.4h-8.7v-1h1.4c1.67,0,3.03-.53,4.1-1.6,1.07-1.07,1.63-2.33,1.7-3.8h.2ZM151.32,6.88v60h-6.4V6.88h6.4ZM151.02,13.27v-6.4h7.4v1h-1.2c-1.6,0-2.98.52-4.15,1.55-1.17,1.03-1.75,2.32-1.75,3.85h-.3ZM178.22,63.78l-.2,3.1h-26.9v-3.1h27.1ZM183.82,52.58l-5.5,14.3h-15.2l3.4-3.1c3.33,0,6.02-.48,8.05-1.45,2.03-.97,3.68-2.3,4.95-4,1.27-1.7,2.37-3.62,3.3-5.75h1Z"/>
      <path class="st3" d="M198.72,13.17h-.2c-.07-1.53-.63-2.8-1.7-3.8-1.07-1-2.43-1.5-4.1-1.5h-1.4v-1h8.7l-1.3,6.3ZM198.72,60.48l1.3,6.4h-8.7v-1h1.4c1.67,0,3.03-.53,4.1-1.6,1.07-1.07,1.63-2.33,1.7-3.8h.2ZM204.92,6.88v60h-6.4V6.88h6.4ZM231.72,6.88v3.1h-27v-3.1h27ZM227.12,35.38v3h-22.4v-3h22.4ZM231.82,63.78l-.2,3.1h-26.9v-3.1h27.1ZM237.42,52.58l-5.5,14.3h-15.2l3.4-3.1c3.33,0,6.02-.48,8.05-1.45,2.03-.97,3.68-2.3,4.95-4s2.37-3.62,3.3-5.75h1ZM231.72,5.27v2.6l-11.4-1c2.06,0,4.27-.18,6.6-.55,2.33-.37,3.93-.72,4.8-1.05ZM227.12,29.88v5.7h-5.2v-.2c1.4,0,2.43-.42,3.1-1.25.67-.83,1-1.82,1-2.95v-1.3h1.1ZM227.12,38.18v5.7h-1.1v-1.3c0-1.13-.33-2.12-1-2.95-.67-.83-1.7-1.25-3.1-1.25v-.2h5.2ZM231.72,9.67v6.9h-1.1v-1.5c0-1.4-.45-2.6-1.35-3.6s-2.12-1.5-3.65-1.5v-.3h6.1Z"/>
      <path class="st3" d="M256.42,4.17h-.3c0-1.73-.63-3.22-1.9-4.45-1.27-1.23-2.77-1.85-4.5-1.85h-1.2l-.1-1h8v7.3ZM256.42,59.58v7.3h-8v-1h1.3c1.73,0,3.22-.62,4.45-1.85,1.23-1.23,1.88-2.72,1.95-4.45h.3ZM262.62-3.12v70h-6.5V-3.12h6.5ZM274.52-3.12c4.27,0,7.93.77,11,2.3,3.07,1.53,5.43,3.75,7.1,6.65,1.67,2.9,2.5,6.35,2.5,10.35,0,3.07-.6,5.82-1.8,8.25-1.2,2.43-2.8,4.48-4.8,6.15-2,1.67-4.27,2.92-6.8,3.75-2.53.83-5.15,1.15-7.85.95-2.7-.2-5.32-.96-7.85-2.3v-1c2.27.33,4.28.45,6.05.35,1.77-.1,3.63-.47,5.6-1.1,1.97-.63,3.8-1.75,5.5-3.35s2.98-3.83,3.85-6.7c.2-.73.37-1.65.5-2.75.13-1.1.17-2.18.1-3.25-.07-4.6-1.27-7.3-3.6-10.1-2.33-2.8-5.63-4.2-9.9-4.2h-11.8c-.33-1-.67-3-1-4h13.2ZM262.32,59.58h.3c.07,1.73.72,3.22,1.95,4.45,1.23,1.23,2.71,1.85,4.45,1.85h1.3v1h-8v-7.3Z"/>
      <path class="st3" d="M313.02,13.27h-.2c-.07-1.53-.67-2.82-1.8-3.85-1.13-1.03-2.54-1.55-4.2-1.55h-1.2v-1h7.4v6.4ZM313.02,60.48l1.3,6.4h-8.7v-1h1.4c1.67,0,3.03-.53,4.1-1.6,1.07-1.07,1.63-2.33,1.7-3.8h.2ZM319.22,6.88v60h-6.4V6.88h6.4ZM318.92,13.27v-6.4h7.4v1h-1.2c-1.6,0-2.98.52-4.15,1.55-1.17,1.03-1.75,2.32-1.75,3.85h-.3ZM346.12,63.78l-.2,3.1h-26.9v-3.1h27.1ZM351.72,52.58l-5.5,14.3h-15.2l3.4-3.1c3.33,0,6.02-.48,8.05-1.45,2.03-.97,3.68-2.3,4.95-4,1.27-1.7,2.37-3.62,3.3-5.75h1Z"/>
      <path class="st3" d="M368.02,59.58c-.73,2-.63,3.55.3,4.65.93,1.1,2,1.65,3.2,1.65h.8v1h-19.1v-1h.8c1.4,0,2.83-.48,4.3-1.45,1.47-.97,2.73-2.58,3.8-4.85h5.9ZM387.31,5.48l.7,6.9-22.9,54.2h-6.3l23.7-50.8c.73-1.6,1.35-2.98,1.85-4.15.5-1.17.95-2.32,1.35-3.45.4-1.13.63-2.03.7-2.7h.9ZM399.12,43.58v3h-26.5v-3h26.5ZM387.31,5.48l27.5,60.8h-7.9l-21.3-51.9,1.7-8.9ZM404.22,59.58h7.6c1,2.27,2.23,3.88,3.7,4.85,1.47.97,2.87,1.45,4.2,1.45h.8v1h-20.5v-1h.8c1.13,0,2.17-.55,3.1-1.65.93-1.1,1.03-2.65.3-4.65Z"/>
      <path class="st3" d="M432.42,13.17l-8.5-.3c-1.07-1.53-2.38-2.75-3.95-3.65-1.57-.9-3.32-1.35-5.25-1.35h-1.2v-1h23.2v1h-1.2c-1.47,0-2.52.58-3.15,1.75-.63,1.17-.62,2.35.05,3.55ZM428.92,6.98l18.5,32.9-4.1,3.5-23.1-36.4h8.7ZM442.72,60.48v6.4h-7.3v-1h1.2c1.6,0,2.95-.53,4.05-1.6,1.1-1.07,1.68-2.33,1.75-3.8h.3ZM448.92,41.08v25.8h-6.5v-25.8h6.5ZM465.72,6.98h6.3l-23.8,36.2-3.7-1.1,21.2-35.1ZM448.61,60.48h.3c.07,1.47.65,2.73,1.75,3.8,1.1,1.07,2.45,1.6,4.05,1.6h1.2v1h-7.3v-6.4ZM461.92,13.27c.73-1.33.77-2.57.1-3.7-.67-1.13-1.73-1.7-3.2-1.7h-1.2v-1h20.9v1h-1.2c-1.87,0-3.62.52-5.25,1.55-1.63,1.03-2.92,2.22-3.85,3.55l-6.3.3Z"/>
      <path class="st3" d="M487.02,60.68v6.2h-7.5v-1h1.7c1.53,0,2.83-.5,3.9-1.5s1.6-2.23,1.6-3.7h.3ZM486.81,5.38l4.3,5.6.1,55.9h-4.5V17.88c0-3.4-.3-7.57-.9-12.5h1ZM486.81,5.38l53.4,52.2,1,10.7-53.4-52.5-1-10.4ZM491.22,60.68c0,1.47.55,2.7,1.65,3.7,1.1,1,2.38,1.5,3.85,1.5h1.7v1h-7.5v-6.2h.3ZM536.81,13.08c-.07-1.47-.63-2.7-1.7-3.7s-2.37-1.5-3.9-1.5h-1.7v-1h7.5v6.2h-.2ZM541.22,6.88v48.6c0,2.13.07,4.18.2,6.15.13,1.97.37,4.18.7,6.65h-.9l-4.4-5.3V6.88h4.4ZM540.92,13.08v-6.2h7.5v1h-1.7c-1.47,0-2.75.5-3.85,1.5-1.1,1-1.65,2.23-1.65,3.7h-.3Z"/>
    </g>
  </g>
  <g id="_レイヤー_5" data-name="レイヤー_5" class="st7">
    <g>
      <path class="st4" d="M68.32,4.17h-.3c-.07-1.73-.72-3.22-1.95-4.45-1.23-1.23-2.72-1.85-4.45-1.85h-1.3v-1h8v7.3ZM68.32,59.58v7.3h-8v-1h1.3c1.73,0,3.22-.62,4.45-1.85,1.23-1.23,1.88-2.72,1.95-4.45h.3ZM77.32-3.12v70h-9.3V-3.12h9.3ZM89.72-3.12c3,0,5.8.4,8.4,1.2,2.6.8,4.82,1.98,6.65,3.55,1.83,1.57,3.28,3.52,4.35,5.85,1.07,2.33,1.6,5.07,1.6,8.2s-.7,6.05-2.1,8.95c-1.4,2.9-3.35,5.28-5.85,7.15-2.5,1.87-5.45,2.87-8.85,3,1.47.54,2.93,1.57,4.4,3.1,1.47,1.53,2.73,3.03,3.8,4.5,0,.07.42.7,1.25,1.9.83,1.2,1.88,2.68,3.15,4.45,1.27,1.77,2.55,3.52,3.85,5.25,1.3,1.73,2.45,3.17,3.45,4.3,1.33,1.6,2.65,2.95,3.95,4.05,1.3,1.1,2.7,1.97,4.2,2.6,1.5.63,3.18.95,5.05.95v1h-7c-3.2,0-6.03-.42-8.5-1.25-2.47-.83-4.6-1.97-6.4-3.4-1.8-1.43-3.33-2.98-4.6-4.65-.27-.47-.82-1.33-1.65-2.6-.83-1.27-1.77-2.71-2.8-4.35-1.03-1.63-2.05-3.25-3.05-4.85-1-1.6-1.87-2.98-2.6-4.15-.73-1.17-1.2-1.92-1.4-2.25-1.13-1.8-2.4-3.35-3.8-4.65s-2.93-1.98-4.6-2.05v-1c.07,0,.55.02,1.45.05.9.03,1.95.02,3.15-.05,1.73-.07,3.58-.37,5.55-.9,1.97-.53,3.77-1.57,5.4-3.1,1.63-1.53,2.85-3.8,3.65-6.8.2-.67.35-1.5.45-2.5.1-1,.12-2.03.05-3.1-.07-4.6-1.22-7.18-3.45-9.75-2.23-2.57-5.15-3.92-8.75-4.05-1.53-.13-3.13-.18-4.8-.15-1.67.03-3.1.05-4.3.05h-2c0-.07-.08-1.38-.25-1.95-.17-.57-.42-1.42-.75-2.55h13.7ZM77.02,59.58h.3c0,1.73.63,3.22,1.9,4.45,1.27,1.23,2.77,1.85,4.5,1.85h1.2v1h-7.9v-7.3Z"/>
      <path class="st4" d="M157.65,5.48c4.44,0,8.53.75,12.29,2.25,3.75,1.5,7.02,3.63,9.81,6.4,2.79,2.77,4.96,6.07,6.53,9.9,1.56,3.83,2.34,8.12,2.34,12.85s-.78,9.02-2.34,12.85c-1.56,3.83-3.74,7.13-6.53,9.9-2.79,2.77-6.06,4.9-9.81,6.4-3.75,1.5-7.85,2.25-12.29,2.25s-8.43-.75-12.15-2.25c-3.72-1.5-6.99-3.63-9.81-6.4-2.82-2.77-5-6.07-6.52-9.9-1.53-3.83-2.3-8.12-2.3-12.85s.77-9.02,2.3-12.85c1.53-3.83,3.7-7.13,6.52-9.9,2.82-2.77,6.09-4.9,9.81-6.4,3.72-1.5,7.77-2.25,12.15-2.25ZM157.65,64.98c4.2,0,7.95-1.18,11.25-3.55,3.3-2.37,5.9-5.65,7.79-9.85,1.89-4.2,2.83-9.1,2.83-14.7s-.95-10.58-2.83-14.75c-1.89-4.17-4.49-6.43-7.79-8.8-3.3-2.37-7.05-3.55-11.25-3.55s-7.77,1.18-11.07,3.55c-3.3,2.37-5.91,4.63-7.83,8.8-1.92,4.17-2.88,9.08-2.88,14.75s.96,10.5,2.88,14.7c1.92,4.2,4.53,7.48,7.83,9.85,3.3,2.37,6.99,3.55,11.07,3.55Z"/>
      <path class="st4" d="M204.57,13.27h-.2c-.07-1.53-.65-2.82-1.75-3.85-1.1-1.03-2.45-1.55-4.05-1.55h-1.2v-1h7.2v6.4ZM204.57,60.48l1.1,6.4h-8.3v-1h1.4c1.6,0,2.92-.53,3.95-1.6,1.03-1.07,1.58-2.33,1.65-3.8h.2ZM213.47,6.88v60h-9.1V6.88h9.1ZM213.17,13.27v-6.4h7.3v1h-1.2c-1.6,0-2.97.52-4.1,1.55-1.13,1.03-1.7,2.32-1.7,3.85h-.3ZM239.17,63.48l.7,3.4h-26.6v-3.4h25.9ZM245.07,51.18l-4.9,15.7h-15.9l3.3-3.4c3.13,0,5.75-.52,7.85-1.55,2.1-1.03,3.85-2.48,5.25-4.35,1.4-1.87,2.53-4,3.4-6.4h1Z"/>
      <path class="st4" d="M258.57,13.17h-.2c-.07-1.53-.62-2.8-1.65-3.8-1.03-1-2.35-1.5-3.95-1.5h-1.4v-1h8.3l-1.1,6.3ZM258.57,60.48l1.1,6.4h-8.3v-1h1.4c1.6,0,2.92-.53,3.95-1.6,1.03-1.07,1.58-2.33,1.65-3.8h.2ZM267.47,6.88v60h-9.1V6.88h9.1ZM293.47,6.88v3.4h-26.2v-3.4h26.2ZM288.97,35.27v3.4h-21.7v-3.4h21.7ZM293.17,63.48l.7,3.4h-26.6v-3.4h25.9ZM299.07,51.18l-4.9,15.7h-15.9l3.3-3.4c3.13,0,5.75-.52,7.85-1.55,2.1-1.03,3.85-2.48,5.25-4.35,1.4-1.87,2.53-4,3.4-6.4h1ZM293.47,5.27v2.6l-11.1-1c2.07,0,4.23-.18,6.5-.55,2.27-.37,3.8-.72,4.6-1.05ZM288.97,28.77v6.7h-6.4v-.2c1.73,0,3.05-.53,3.95-1.6.9-1.07,1.35-2.33,1.35-3.8v-1.1h1.1ZM288.97,38.48v6.7h-1.1v-1.1c0-1.53-.45-2.82-1.35-3.85-.9-1.03-2.22-1.55-3.95-1.55v-.2h6.4ZM293.47,9.98v8.2h-1v-1.3c0-1.93-.57-3.52-1.7-4.75-1.13-1.23-2.7-1.85-4.7-1.85v-.3h7.4Z"/>
      <path class="st4" d="M317.27,4.17h-.3c0-1.73-.63-3.22-1.9-4.45-1.27-1.23-2.77-1.85-4.5-1.85h-1.2l-.1-1h8v7.3ZM317.27,59.58v7.3h-8v-1h1.3c1.73,0,3.22-.62,4.45-1.85,1.23-1.23,1.88-2.72,1.95-4.45h.3ZM326.27-3.12v70h-9.3V-3.12h9.3ZM337.77-3.12c4.8,0,8.82.78,12.05,2.35,3.23,1.57,5.7,3.8,7.4,6.7,1.7,2.9,2.55,6.32,2.55,10.25.07,3.13-.52,5.98-1.75,8.55-1.23,2.57-2.88,4.72-4.95,6.45-2.07,1.73-4.42,3.02-7.05,3.85-2.63.83-5.35,1.12-8.15.85-2.8-.27-5.53-1.17-8.2-2.7v-1c2.07.2,3.92.23,5.55.1,1.63-.13,3.33-.53,5.1-1.2,1.77-.67,3.43-1.8,5-3.4,1.57-1.6,2.75-3.77,3.55-6.5.2-.8.37-1.75.5-2.85.13-1.1.17-2.15.1-3.15-.07-4.47-1.25-7.07-3.55-9.8-2.3-2.73-5.55-4.1-9.75-4.1h-10.2c-.33-1.13-.67-3.27-1-4.4h12.8ZM325.97,59.58h.3c.07,1.73.72,3.22,1.95,4.45,1.23,1.23,2.72,1.85,4.45,1.85h1.3v1h-8v-7.3Z"/>
      <path class="st4" d="M376.07,13.27h-.2c-.07-1.53-.65-2.82-1.75-3.85-1.1-1.03-2.45-1.55-4.05-1.55h-1.2v-1h7.2v6.4ZM376.07,60.48l1.1,6.4h-8.3v-1h1.4c1.6,0,2.92-.53,3.95-1.6,1.03-1.07,1.58-2.33,1.65-3.8h.2ZM384.97,6.88v60h-9.1V6.88h9.1ZM384.67,13.27v-6.4h7.3v1h-1.2c-1.6,0-2.97.52-4.1,1.55-1.13,1.03-1.7,2.32-1.7,3.85h-.3ZM410.67,63.48l.7,3.4h-26.6v-3.4h25.9ZM416.57,51.18l-4.9,15.7h-15.9l3.3-3.4c3.13,0,5.75-.52,7.85-1.55,2.1-1.03,3.85-2.48,5.25-4.35,1.4-1.87,2.53-4,3.4-6.4h1Z"/>
      <path class="st4" d="M431.97,59.78c-.73,1.93-.63,3.43.3,4.5.93,1.07,2,1.6,3.2,1.6h.8v1h-19.4v-1h.8c1.33,0,2.73-.47,4.2-1.4,1.47-.93,2.73-2.5,3.8-4.7h6.3ZM451.07,5.08l.6,8.6-22.5,52.9h-6.7l23.6-50.6c.07-.13.3-.65.7-1.55.4-.9.85-1.95,1.35-3.15.5-1.2.97-2.37,1.4-3.5.43-1.13.68-2.03.75-2.7h.8ZM461.87,44.77v3.3h-26.2v-3.3h26.2ZM451.07,5.08l28.2,61.2h-10.9l-20.4-49.2,3.1-12ZM465.77,59.78h10.6c1,2.2,2.23,3.77,3.7,4.7,1.47.93,2.87,1.4,4.2,1.4h.8v1h-23.5v-1h.8c1.13,0,2.17-.53,3.1-1.6.93-1.07,1.03-2.57.3-4.5Z"/>
      <path class="st4" d="M497.77,13.17l-11.1-.3c-1-1.53-2.29-2.75-3.85-3.65-1.57-.9-3.32-1.35-5.25-1.35h-1.2v-1h25.6v1h-1.1c-1.47,0-2.52.58-3.15,1.75-.63,1.17-.62,2.35.05,3.55ZM494.27,6.98l18.6,32.8-7.2,2.8-22.7-35.6h11.3ZM505.17,60.48v6.4h-7.2v-1h1.2c1.6,0,2.93-.53,4-1.6,1.07-1.07,1.63-2.33,1.7-3.8h.3ZM514.07,40.58v26.3h-9.2v-26.2l9.2-.1ZM529.97,6.98h6.7l-23.4,35.7-4.1-1,20.8-34.7ZM513.77,60.48h.3c.07,1.47.65,2.73,1.75,3.8,1.1,1.07,2.42,1.6,3.95,1.6h1.2v1h-7.2v-6.4ZM526.27,13.17c.73-1.27.75-2.47.05-3.6-.7-1.13-1.75-1.7-3.15-1.7h-1.2v-1h21.1v1h-1.2c-1.87,0-3.6.5-5.2,1.5-1.6,1-2.87,2.17-3.8,3.5l-6.6.3Z"/>
      <path class="st4" d="M550.17,60.68v6.2h-7.5v-1h1.7c1.53,0,2.83-.5,3.9-1.5s1.6-2.23,1.6-3.7h.3ZM549.87,5.38l7.5,8.8.1,52.7h-7.6V17.58c0-3.4-.3-7.47-.9-12.2h.9ZM549.87,5.38l54.5,52,1,10.9-54.4-52.2-1.1-10.7ZM557.47,60.68c0,1.47.55,2.7,1.65,3.7,1.1,1,2.38,1.5,3.85,1.5h1.7v1h-7.5v-6.2h.3ZM597.87,13.08c-.07-1.47-.63-2.7-1.7-3.7-1.07-1-2.37-1.5-3.9-1.5h-1.7v-1h7.5v6.2h-.2ZM605.37,6.88v48.9c0,2.2.07,4.25.2,6.15.13,1.9.37,4.02.7,6.35h-.9l-7.5-8.9V6.88h7.5ZM605.07,13.08v-6.2h7.5v1h-1.7c-1.47,0-2.75.5-3.85,1.5-1.1,1-1.65,2.23-1.65,3.7h-.3Z"/>
    </g>
  </g>
  <g id="_レイヤー_4" data-name="レイヤー_4" class="st7">
    <g>
      <path class="st4" d="M54.06,4.17h-.3c-.07-1.73-.72-3.22-1.95-4.45-1.23-1.23-2.72-1.85-4.45-1.85h-1.3v-1h8v7.3ZM54.06,59.57v7.3h-8v-1h1.3c1.73,0,3.22-.62,4.45-1.85,1.23-1.23,1.88-2.72,1.95-4.45h.3ZM60.26-3.13v70h-6.5V-3.13h6.5ZM73.06-3.13c3,0,5.72.43,8.15,1.3,2.43.87,4.48,2.12,6.15,3.75,1.67,1.63,2.95,3.6,3.85,5.9.9,2.3,1.35,4.92,1.35,7.85,0,3.2-.75,6.27-2.25,9.2-1.5,2.93-3.53,5.32-6.1,7.15-2.57,1.83-5.45,2.75-8.65,2.75,1.13.47,2.37,1.42,3.7,2.85,1.33,1.43,2.5,2.82,3.5,4.15,1.8,2.6,3.38,4.83,4.75,6.7,1.37,1.87,2.75,3.7,4.15,5.5,1.4,1.8,2.6,3.23,3.6,4.3,1.33,1.47,2.67,2.77,4,3.9,1.33,1.13,2.78,2.03,4.35,2.7,1.57.67,3.32,1,5.25,1v1h-5.5c-3.07,0-5.72-.47-7.95-1.4-2.23-.93-4.12-2.08-5.65-3.45-1.53-1.37-2.83-2.68-3.9-3.95-.2-.27-.75-1.03-1.65-2.3-.9-1.27-1.97-2.78-3.2-4.55-1.23-1.77-2.45-3.52-3.65-5.25-1.2-1.73-2.23-3.22-3.1-4.45-.87-1.23-1.37-1.95-1.5-2.15-1.27-1.67-2.67-3.2-4.2-4.6-1.53-1.4-3.2-2.1-5-2.1v-1c2.07.07,3.83.07,5.3,0,1.73-.07,3.63-.33,5.7-.8,2.07-.47,4-1.43,5.8-2.9,1.8-1.47,3.17-3.7,4.1-6.7.2-.73.37-1.65.5-2.75.13-1.1.17-2.18.1-3.25-.07-4.53-1.22-8.15-3.45-10.85-2.23-2.7-5.22-3.15-8.95-3.35-1.87-.13-3.78-.18-5.75-.15-1.97.03-4.28.05-6.95.05,0-.07-.08-1.35-.25-1.85-.17-.5-.42-1.25-.75-2.25h14.1ZM59.96,59.57h.3c0,1.73.63,3.22,1.9,4.45,1.27,1.23,2.77,1.85,4.5,1.85h1.2v1h-7.9v-7.3Z"/>
      <path class="st4" d="M142.59,5.47c4.2,0,8.15.75,11.83,2.25s6.93,3.65,9.72,6.45c2.79,2.8,4.96,6.12,6.53,9.95,1.56,3.83,2.34,8.08,2.34,12.75s-.78,8.92-2.34,12.75c-1.56,3.83-3.74,7.15-6.53,9.95-2.79,2.8-6.03,4.95-9.72,6.45s-7.64,2.25-11.83,2.25-8.13-.75-11.79-2.25c-3.66-1.5-6.89-3.65-9.67-6.45-2.79-2.8-4.97-6.12-6.53-9.95-1.56-3.83-2.34-8.08-2.34-12.75s.78-8.92,2.34-12.75c1.56-3.83,3.74-7.15,6.53-9.95,2.79-2.8,6.01-4.95,9.67-6.45,3.66-1.5,7.59-2.25,11.79-2.25ZM142.59,65.27c4.44,0,8.46-1.2,12.06-3.6,3.6-2.4,6.45-5.73,8.55-10,2.1-4.27,3.15-9.2,3.15-14.8s-1.05-10.62-3.15-14.85c-2.1-4.23-4.95-6.55-8.55-8.95-3.6-2.4-7.62-3.6-12.06-3.6s-8.37,1.2-11.97,3.6c-3.6,2.4-6.45,4.72-8.55,8.95-2.1,4.23-3.15,9.18-3.15,14.85s1.05,10.53,3.15,14.8c2.1,4.27,4.95,7.6,8.55,10,3.6,2.4,7.59,3.6,11.97,3.6Z"/>
      <path class="st4" d="M190.32,13.27h-.2c-.07-1.53-.67-2.82-1.8-3.85-1.13-1.03-2.53-1.55-4.2-1.55h-1.2v-1h7.4v6.4ZM190.32,60.47l1.3,6.4h-8.7v-1h1.4c1.67,0,3.03-.53,4.1-1.6,1.07-1.07,1.63-2.33,1.7-3.8h.2ZM196.52,6.87v60h-6.4V6.87h6.4ZM196.22,13.27v-6.4h7.4v1h-1.2c-1.6,0-2.98.52-4.15,1.55-1.17,1.03-1.75,2.32-1.75,3.85h-.3ZM223.42,63.77l-.2,3.1h-26.9v-3.1h27.1ZM229.02,52.57l-5.5,14.3h-15.2l3.4-3.1c3.33,0,6.02-.48,8.05-1.45,2.03-.97,3.68-2.3,4.95-4,1.27-1.7,2.37-3.62,3.3-5.75h1Z"/>
      <path class="st4" d="M241.52,13.17h-.2c-.07-1.53-.63-2.8-1.7-3.8-1.07-1-2.43-1.5-4.1-1.5h-1.4v-1h8.7l-1.3,6.3ZM241.52,60.47l1.3,6.4h-8.7v-1h1.4c1.67,0,3.03-.53,4.1-1.6,1.07-1.07,1.63-2.33,1.7-3.8h.2ZM247.72,6.87v60h-6.4V6.87h6.4ZM274.52,6.87v4.1h-27v-4.1h27ZM269.92,35.37v3h-22.4v-3h22.4ZM274.62,63.77l-.2,3.1h-26.9v-3.1h27.1ZM280.22,52.57l-5.5,14.3h-15.2l3.4-3.1c3.33,0,6.02-.48,8.05-1.45,2.03-.97,3.68-2.3,4.95-4,1.27-1.7,2.37-3.62,3.3-5.75h1ZM274.52,5.27v2.6l-11.4-1c2.07,0,4.27-.18,6.6-.55,2.33-.37,3.93-.72,4.8-1.05ZM269.92,29.87v5.7h-5.2v-.2c1.4,0,2.43-.42,3.1-1.25.67-.83,1-1.82,1-2.95v-1.3h1.1ZM269.92,38.17v5.7h-1.1v-1.3c0-1.13-.33-2.12-1-2.95-.67-.83-1.7-1.25-3.1-1.25v-.2h5.2ZM274.52,10.67v5.9h-1.1v-.5c0-1.4-.45-2.6-1.35-3.6-.9-1-2.12-1.5-3.65-1.5v-.3h6.1Z"/>
      <path class="st4" d="M296.25,4.58h-.2c-.07-1.78-.66-3.25-1.77-4.41-1.11-1.16-2.47-1.74-4.09-1.74h-1.41v-1.16h8.79l-1.31,7.31ZM296.25,59.45l1.31,7.42h-8.79v-1.16h1.41c1.62,0,2.98-.62,4.09-1.86,1.11-1.24,1.7-2.71,1.77-4.41h.2ZM302.51-2.73v69.6h-6.46V-2.73h6.46ZM302.21,59.45h.2c.07,1.7.66,3.17,1.77,4.41,1.11,1.24,2.47,1.86,4.09,1.86h1.41v1.16h-8.79l1.31-7.42ZM312.41-2.73c4.71,0,8.79.79,12.22,2.38,3.43,1.59,6.09,3.87,7.98,6.84,1.88,2.98,2.83,6.52,2.83,10.61,0,4.41-.86,8.18-2.58,11.31-1.72,3.13-3.99,5.53-6.82,7.19-2.83,1.66-5.96,2.48-9.39,2.44-3.43-.04-6.87-1.02-10.3-2.96v-1.16c2.22.46,4.21.68,5.96.64,1.75-.04,3.6-.39,5.55-1.04,1.95-.66,3.79-1.87,5.5-3.65,1.72-1.78,3.08-4.33,4.09-7.66.27-.85.45-1.86.56-3.02.1-1.16.15-2.24.15-3.25,0-4.72-1.41-8.43-4.24-11.14-2.83-2.71-6.73-3.06-11.72-3.06h-9.9c-.34-1.16-.71-3.32-1.11-4.48h11.21Z"/>
      <path class="st4" d="M351.97,13.27h-.2c-.07-1.53-.67-2.82-1.8-3.85-1.13-1.03-2.54-1.55-4.2-1.55h-1.2v-1h7.4v6.4ZM351.97,60.47l1.3,6.4h-8.7v-1h1.4c1.67,0,3.03-.53,4.1-1.6,1.07-1.07,1.63-2.33,1.7-3.8h.2ZM358.17,6.87v60h-6.4V6.87h6.4ZM357.87,13.27v-6.4h7.4v1h-1.2c-1.6,0-2.98.52-4.15,1.55-1.17,1.03-1.75,2.32-1.75,3.85h-.3ZM385.07,63.77l-.2,3.1h-26.9v-3.1h27.1ZM390.67,52.57l-5.5,14.3h-15.2l3.4-3.1c3.33,0,6.02-.48,8.05-1.45,2.03-.97,3.68-2.3,4.95-4,1.27-1.7,2.37-3.62,3.3-5.75h1Z"/>
      <path class="st4" d="M406.97,59.57c-.73,2-.63,3.55.3,4.65.93,1.1,2,1.65,3.2,1.65h.8v1h-19.1v-1h.8c1.4,0,2.83-.48,4.3-1.45,1.47-.97,2.73-2.58,3.8-4.85h5.9ZM426.27,5.47l.7,7.9-22.9,53.2h-6.3l23.7-50.8c.73-1.6,1.35-2.98,1.85-4.15.5-1.17.95-2.32,1.35-3.45.4-1.13.63-2.03.7-2.7h.9ZM438.07,43.57v4h-26.5v-4h26.5ZM426.27,5.47l27.5,60.8h-7.9l-21.3-50.9,1.7-9.9ZM443.17,59.57h7.6c1,2.27,2.23,3.88,3.7,4.85,1.47.97,2.87,1.45,4.2,1.45h.8v1h-20.5v-1h.8c1.13,0,2.17-.55,3.1-1.65.93-1.1,1.03-2.65.3-4.65Z"/>
      <path class="st4" d="M468.37,13.17l-8.5-.3c-1.07-1.53-2.38-2.75-3.95-3.65-1.57-.9-3.32-1.35-5.25-1.35h-1.2v-1h23.2v1h-1.2c-1.47,0-2.52.58-3.15,1.75-.63,1.17-.62,2.35.05,3.55ZM464.87,6.97l18.5,32.9-4.1,3.5-23.1-36.4h8.7ZM478.67,60.47v6.4h-7.3v-1h1.2c1.6,0,2.95-.53,4.05-1.6,1.1-1.07,1.68-2.33,1.75-3.8h.3ZM484.87,41.07v25.8h-6.5v-25.8h6.5ZM501.67,6.97h6.3l-23.8,36.2-3.7-1.1,21.2-35.1ZM484.57,60.47h.3c.07,1.47.65,2.73,1.75,3.8,1.1,1.07,2.45,1.6,4.05,1.6h1.2v1h-7.3v-6.4ZM497.87,13.27c.73-1.33.77-2.57.1-3.7-.67-1.13-1.73-1.7-3.2-1.7h-1.2v-1h20.9v1h-1.2c-1.87,0-3.62.52-5.25,1.55-1.63,1.03-2.92,2.22-3.85,3.55l-6.3.3Z"/>
      <path class="st4" d="M524.53,60.67v6.2h-7.2v-1h1.63c1.47,0,2.72-.5,3.74-1.5,1.02-1,1.54-2.23,1.54-3.7h.29ZM524.34,5.37l4.13,5.6.1,55.9h-4.32V17.87c0-3.4-.29-7.57-.86-12.5h.96ZM524.34,5.37l51.18,52.2.96,10.7-51.18-52.5-.96-10.4ZM528.56,60.67c0,1.47.53,2.7,1.58,3.7,1.06,1,2.29,1.5,3.7,1.5h1.63v1h-7.2v-6.2h.29ZM572.26,13.07c-.06-1.47-.61-2.7-1.63-3.7-1.02-1-2.27-1.5-3.74-1.5h-1.63v-1h7.2v6.2h-.19ZM576.48,6.87v48.6c0,2.13.06,4.18.19,6.15.13,1.97.35,4.18.67,6.65h-.86l-4.22-5.3V6.87h4.22ZM576.19,13.07v-6.2h7.2v1h-1.63c-1.41,0-2.64.5-3.7,1.5-1.06,1-1.58,2.23-1.58,3.7h-.29Z"/>
    </g>
  </g>
  <g id="_レイヤー_2" data-name="レイヤー_2" class="st7">
    <path d="M14.96,66.84l17.84-24.18,12.7-22.76,19.95-27.04.71.08-.37,2.39q-.69,4.52-.94,8.54c-1.51,32.37-15.71,48.36-44.17,61.07l-4.78,1.93-.94-.03Z"/>
    <path d="M13.45,62.22l17.39-23.55,9.5-18.4L60.95-7.65l-1.06-.1s-2.33,2.12-4.45,3.6C31.09,12.87,13.68,22.28,13.54,54.81c-.02,4.33-.72,7.23-.72,7.33"/>
    <polygon class="st5" points="41.76 41.67 17.53 41.67 34.75 18.16 58.98 18.16 41.76 41.67"/>
    <g>
      <path class="st6" d="M42.01,42.02h-20.65c-.68,0-1.3-.38-1.62-1-.37-.73-.26-1.62.29-2.38l14.25-19.63c.46-.63,1.18-1.63,2.79-1.63h20.6c.7,0,1.37.42,1.71,1.08.37.73.28,1.59-.24,2.32l-14.25,19.63c-.46.64-1.18,1.63-2.69,1.63,0,0-.18,0-.18,0Z"/>
      <path d="M37.06,18.87s.04,0,.06,0h20.54c.3,0,.65.45.25,1.01l-14.25,19.63c-.39.53-.71,1.01-1.47,1.01-.03,0-.07,0-.1,0h-20.73c-.3,0-.52-.45-.12-1.01l14.25-19.63c.39-.54.72-1.01,1.57-1.01M37.06,15.87c-2.37,0-3.5,1.56-3.98,2.22l-14.27,19.66c-.88,1.21-1.04,2.72-.41,3.95.57,1.13,1.71,1.83,2.96,1.83h20.67c.06,0,.11,0,.16,0,2.27,0,3.39-1.54,3.86-2.2l.03-.05,14.25-19.63c.85-1.17.99-2.66.37-3.88-.6-1.17-1.76-1.89-3.04-1.89h-20.6Z"/>
    </g>
    <rect class="st4" x="30.09" y="22.28" width="26.54" height="2.8"/>
    <rect class="st4" x="21.07" y="34.05" width="26.54" height="2.8"/>
    <polygon class="st4" points="52.74 23.84 30.75 36.11 26.85 35.55 48.84 23.28 52.74 23.84"/>
  </g>
  <g id="_レイヤー_3" data-name="レイヤー_3" class="st7">
    <path d="M-.96,65.98l17.84-24.18,12.7-22.76L49.52-8h.93s-.98,4.14-.98,4.14c-.34,2.42-.49,3.47-.54,6.88-.51,32.4-15.71,48.36-44.17,61.07L.05,65.99H-.96Z"/>
    <path d="M-4.16,63.59l17.81-24.12,9.73-18.86L44.5-7.99h-1.09s-2.69,2.06-4.93,3.47C11.72,12.35-.96,28.24-4.07,56c-.49,4.41-.88,7.47-.88,7.57"/>
    <polygon class="st5" points="31.84 41.81 7.61 41.81 24.82 18.3 49.05 18.3 31.84 41.81"/>
    <g>
      <path class="st6" d="M26.08,41.16H5.43c-.68,0-1.3-.38-1.62-1-.37-.73-.26-1.62.29-2.38l14.25-19.63c.46-.63,1.18-1.63,2.79-1.63h20.6c.71,0,1.38.42,1.71,1.08.37.73.28,1.59-.24,2.32l-14.25,19.63c-.46.64-1.18,1.63-2.68,1.63h-.18Z"/>
      <path d="M21.13,18.01s.04,0,.06,0h20.54c.3,0,.65.45.25,1.01l-14.25,19.63c-.39.53-.71,1.01-1.47,1.01-.03,0-.07,0-.1,0H5.43c-.3,0-.52-.45-.12-1.01l7.88-10.85,6.37-8.78c.39-.54.72-1.01,1.57-1.01M21.13,15.01c-2.37,0-3.5,1.56-3.98,2.22l-6.39,8.81-7.88,10.85c-.88,1.21-1.04,2.72-.41,3.95.57,1.13,1.71,1.83,2.96,1.83h20.67c.06,0,.11,0,.16,0,2.27,0,3.39-1.54,3.86-2.2l.03-.05,14.25-19.63c.85-1.17.99-2.66.37-3.88-.6-1.17-1.76-1.89-3.04-1.89h-20.6Z"/>
    </g>
    <rect x="14.16" y="17.13" width="28.88" height="7.09"/>
    <rect x="4.93" y="33.19" width="26.76" height="7.77"/>
    <polygon points="36.81 22.98 14.83 35.25 10.93 34.69 32.91 22.42 36.81 22.98"/>
    <path class="st6" d="M41.72,18.01h-20.57c-.48,0-1.16.39-1.51.86l-1.26,1.69c-.35.48-.25.86.23.86h20.57c.48,0,1.16-.39,1.51-.86l1.26-1.69c.35-.48.25-.86-.23-.86Z"/>
    <path class="st6" d="M28.8,35.99H8.14c-.48,0-1.16.39-1.52.86l-1.26,1.69c-.35.48-.25.86.23.86h20.66c.48,0,1.16-.39,1.52-.86l1.26-1.69c.35-.48.25-.86-.23-.86Z"/>
  </g>
</svg>